/* XPM */
static char *xpm_[] = {
/* columns rows colors chars-per-pixel */
"64 64 220 2 ",
"   c #170908",
".  c #14140C",
"X  c #19140C",
"o  c #231B0E",
"O  c #28180B",
"+  c #3A1C07",
"@  c #261B16",
"#  c #311E18",
"$  c #2D220C",
"%  c #39270A",
"&  c #3F3107",
"*  c #3E310B",
"=  c #2E2311",
"-  c #39271E",
";  c #2C341C",
":  c #2F381F",
">  c #3A3110",
",  c #30391E",
"<  c #001A2C",
"1  c #033227",
"2  c #2B262A",
"3  c #382927",
"4  c #323B20",
"5  c #411F10",
"6  c #582307",
"7  c #413809",
"8  c #572914",
"9  c #443A1E",
"0  c #662C04",
"q  c #7B3606",
"w  c #7B3C06",
"e  c #643D17",
"r  c #733C1D",
"t  c #631622",
"y  c #472E25",
"u  c #482B23",
"i  c #493526",
"p  c #4C322B",
"a  c #513328",
"s  c #59362A",
"d  c #553A2E",
"f  c #5C3B2E",
"g  c #5A3D30",
"h  c #662A24",
"j  c #633F2D",
"k  c #723921",
"l  c #44440A",
"z  c #47461F",
"x  c #7E4A05",
"c  c #6A520F",
"v  c #796013",
"b  c #4F4723",
"n  c #424D2A",
"m  c #574625",
"M  c #44502E",
"N  c #4A572E",
"B  c #4B582F",
"V  c #565929",
"C  c #4E5C32",
"Z  c #515E33",
"A  c #6A4A26",
"S  c #69462D",
"D  c #6F4A2F",
"F  c #704A2F",
"G  c #7C4E2B",
"H  c #674432",
"J  c #704B30",
"K  c #576537",
"L  c #576638",
"P  c #586738",
"I  c #873808",
"U  c #913617",
"Y  c #834D04",
"T  c #984806",
"R  c #885A03",
"E  c #844418",
"W  c #944713",
"Q  c #8A5219",
"!  c #A64C03",
"~  c #AA4D03",
"^  c #AA4A0C",
"/  c #AC5503",
"(  c #B05202",
")  c #B55906",
"_  c #BC5B00",
"`  c #A85912",
"'  c #8D6A07",
"]  c #916C0A",
"[  c #917304",
"{  c #987819",
"}  c #B66706",
"|  c #B67507",
" . c #A36619",
".. c #B86E16",
"X. c #BC7414",
"o. c #834C21",
"O. c #8B5527",
"+. c #975C26",
"@. c #8D4E38",
"#. c #855A35",
"$. c #865A3B",
"%. c #A15E20",
"&. c #9C602A",
"*. c #986937",
"=. c #93683D",
"-. c #996939",
";. c #A56C35",
":. c #B27234",
">. c #C05C00",
",. c #C87603",
"<. c #C47B03",
"1. c #C37814",
"2. c #D37B20",
"3. c #8B4A44",
"4. c #9D6841",
"5. c #A66C48",
"6. c #A87343",
"7. c #AB7B45",
"8. c #B27E46",
"9. c #B77F48",
"0. c #AF7353",
"q. c #7F8B16",
"w. c #958904",
"e. c #9A9906",
"r. c #919514",
"t. c #AC8C0B",
"y. c #BF8F01",
"u. c #B9B110",
"i. c #B88B2C",
"p. c #B3AA2D",
"a. c #C78A03",
"s. c #D28204",
"d. c #D68704",
"f. c #C89701",
"g. c #CB9902",
"h. c #D79703",
"j. c #D88816",
"k. c #D1801F",
"l. c #CC9F10",
"z. c #D9941A",
"x. c #E39C19",
"c. c #CDA502",
"v. c #DBA502",
"b. c #D4BE01",
"n. c #D5A715",
"m. c #E2A905",
"M. c #EABB03",
"N. c #EAB508",
"B. c #EDBB0B",
"V. c #CC8424",
"C. c #D58527",
"Z. c #D3B12D",
"A. c #EABB21",
"S. c #DACA03",
"D. c #D8D901",
"F. c #EBC702",
"G. c #EDD000",
"H. c #EFDE00",
"J. c #F5D807",
"K. c #EFDF1B",
"L. c #F2F000",
"P. c #FBF31A",
"I. c #F8FA1F",
"U. c #F7D83F",
"Y. c #E7E62A",
"T. c #FBEC26",
"R. c #FCFB22",
"E. c #FDFD2C",
"W. c #B38146",
"Q. c #B48149",
"!. c #BA844D",
"~. c #BF9B4F",
"^. c #BB8757",
"/. c #BB8951",
"(. c #BAAD69",
"). c #B8AA7B",
"_. c #C28C55",
"`. c #C38C56",
"'. c #C59259",
"]. c #CBB14C",
"[. c #C38F61",
"{. c #CB9A63",
"}. c #CF9F68",
"|. c #D09F69",
" X c #CDA56A",
".X c #D4AB66",
"XX c #D1A16B",
"oX c #D7B366",
"OX c #D9AD73",
"+X c #CDB57D",
"@X c #D2B47C",
"#X c #E9BE64",
"$X c #EABC73",
"%X c #F1C842",
"&X c #FFF75E",
"*X c #EBC563",
"=X c #F3CB6C",
"-X c #EBEB66",
";X c #F1E761",
":X c #FDF365",
">X c #FDFF6C",
",X c #FFFF71",
"<X c #D2B883",
"1X c #E2C58E",
"2X c #F4DE8D",
"3X c #E3C891",
"4X c #E9D797",
"5X c #EBE793",
"6X c #FAEE95",
"7X c #FCEE9E",
"8X c #F9F393",
"9X c #EBE6A7",
"0X c #F9EBA8",
"qX c #FFFFA5",
"wX c #FFFFA9",
"eX c #ECEBB3",
"rX c #F7EAB0",
"tX c #F4EAB2",
"yX c #FDFCBB",
"uX c #FDFFC4",
/* pixels */
"P P P P P P P P P P P P P P P P P P P P P P P P P P P P P P P P P P P P P P P P P P P P P P P P P P P P P P P P P P P P P P P P ",
"P P P P P P P P P P P P P P P P P P P P P P P P P P P P P P P P P P P P P P P P P P P P P P P P P P P P P P P P P P P P P P P P ",
"P P P P P P P P P P P P P P P P P P P P P P P P P P P P P P P P P P P P P P P P P P P P P P P P P P P P P P P P P P P P P P P P ",
"P P P P P P P P P P P P P P P P P P P P P P P P P P P P P P P P P P P P P P P P P P P P P P P P P P P P P P P P P P P P P P P P ",
"P P P P P P P P P P P P P P P P P P P P P P P P P P P P P P P P P P P P P P P P P P P P P P P P P P P P P P P P P P P P P P P P ",
"P P P P P P P P P P P P P P P P P P P P P P P P P P P P P P P P P P P P P P P P P P P P P P P P P P P P P P P P P P P P P P P P ",
"P P P P P P P P P P P P P P P P P P P P P P P P P P P P P P P P P P P P P P P P P P P P P P P P P P P P P P P P P P P P P P P P ",
"P P P P P P P P P P P P P P P P P P P P P P P P P P P P P P P P P P P P P P P P P P P P P P P P P P P P P P P P P P P P P P P P ",
"P P P P P P P P P P P P P P P P P P P P P P P P P P P P P P P P P P P P P P P P P P P P P P P P P P P P P P P P P P P P P P P P ",
"P P P P P P P P P P P P P P P P P P P P P P P P P P P P P P P P P P P P P P P P P P P P P P P P P P P P P P P P P P P P P P P P ",
"P P P P P P P P P P P P P P P P P P P P P P P P P P P P P P P P P P P P P P P P P P P P P P P P P P P P P P P P P P P P P P P P ",
"P P P P P P P P P P P P P P P P P P P P P P P P P P P P P P P P P P P P P P P P P P P P P P P P P P P P P P P P P P P P P P P P ",
"P P P P P P P P P P P P P P P P P P P P P P P P P P P P P P P P P P P P P P P P P P P P P P P P P P P P P P P P P P P P P P P P ",
"P P P P P P P P P P P P P P P P P P P P P P P P P P P P P P P P P P P P P P P P P P P P P P P P P P P P P P P P P P P P P P P P ",
"P P P P P P P P P P P P P P P P P P P P P P P P P P P P P P P P P P P P P P P P P P P P P P P P P P P P P P P P P P P P P P P P ",
"P P P P P P P P P P P P P P P P P P P P P P P P P P P P P P P P P P P P P P P P P P P P P P P P P P P P P P P P P P P P P P P P ",
"P P P P P P P P P P P P P P P P P P P P P P P P P P P P P P P P P P P P P P P P P P P P P L L L P P P P P P P P P P P P P P P P ",
"P P P P P P P P P P P P P P P P P P P P P P P P P P P P P P P P P P P P P P P P P P P P P L L L P P P P P P P P P P P P P P P P ",
"P P P P P P P P P P P P P P P P P P P P P P P P P P P P P P P P P P P P P P K P P P P P P P L L P P P P P P P P P P P P P P P P ",
"P P P P P P P P P P P P P P P P L L L L L K K L P K P P K P K K K P K K K K K K K K K K P P K L P P P P P P P P P P P P P P P P ",
"P P P P P P P P P P P P P P P P K Z N n N N N N N N N N N N N N B B B N V B B B B B B B B N C K P P P P P P P P P P P P P P P P ",
"P P P P P P P P P P P P P P P P Z n , ; ; , , , , , , , , , , , , , , : , , : : : : : : ; ; n C P P P P P P P P P P P P P P P P ",
"P P P P P P P P P P P P P P L L V z & % O O o O = = = = $ = = = = = $ $ = = $ $ O O o $ & & b V K K K P P P P P P P P P P P P P ",
"P P P P P P P P P P P P L K Z N V v ' ' c 9 y A A A A A A A A A A A A A A A A A m 9 u c ' ' v V N K K P P P P P P P P P P P P P ",
"P P P P P P P P P P P P P Z M 4 c t.f.y.' S H #.*.-.*.*.*.*.*.*.*.*.*.*.*.*.*.*.#.D S ' y.f.{ c , M Z P P P L L P P P P P P P P ",
"P P P P P P P P P P P P K N 4 > { n.A.Z.i.#.$.6.7.W.W.W.W.W.W.8.8.W.W.W.8.8.Q.Q.5.$.#.i.Z.A.l.{ > , N K P P P L P P P P P P P P ",
"P P P P P P P P P L K Z V b 8 Q Z.*X=X*X~.4.4.9.`.'.'.`.'._._.`._._._.'._.'.'.'.Q.4.4.~.*X=X*XZ.v 6 b N K K L L P P P P P P P P ",
"P P P P P P P P P L C n , e I ...X2X7X2X X8.6.`.{.XX{.{.{.{.{.{.}.{.{.{.{.{.}.{.^.7.7.(.2X7X2XoX..I e 9 n C K L P P P P P P P P ",
"P P P P P P P P P K N , % w ( 2.$X0XyX9X@X8.8.`.XXXXXX X{.}.}.}.}.}.}. XXXXXXXXX'.:.Q.<XrXuX0X$X2.~ w % ; N K L P P P P P P P P ",
"P P P P P P P P P K M ; % I _ j.=XrXuXeX<X6.;.^.{.{. X'.{.'.{.{.{.{.'.{.'.{.}.{.!.:.7.<XeXuXrX=XC._ I + ; N K K P P P P P P P P ",
"P P P P P P P P P K N , + q ~ 2.1X0XuXeX).4.Q 6././././././././././././././././.:.O.=.).eXuX0X$X2.~ w % , N K P P P P P P P P P ",
"P P P P P P P P P P N , % w ( 2.$X0XyX9X).$.x 4.Q.!.Q.Q.Q.Q.Q.Q.Q.8.Q.Q.W.Q.Q.W.*.E $.).9XyX0X$X2.( w + , N K P P P P P P P P P ",
"P P P P P P P P L L N : % x } z.*X8XqX5X(.4.+.0.^._.`.9.9.9.Q.!.Q.Q.9.9.9.!.^.^.6.@.4.(.5XqX8X*Xx.} Y % , N L L L L P P P P P P ",
"P P P P P P P P L L N 4 * ' a.m.U.&X>X-X].7.5.^.'.'.`.`.`.`.`.^._._._.`._.`.'.'.^.5.W.].-X>X&XU.m.a.R & , C K L L L P P P P P P ",
"P P P P P P P P L L N 4 & ' g.M.J.P.R.Y.Z.Q.0.[.XXXX|.|.}.}.}.XX}.|.|.|.XXXXOX}.[.0.W.Z.Y.R.P.J.M.g.' & , N L L P P P P P P P P ",
"P P P P P P P P L L N 4 * ] l.N.J.H.H.S.p.5.5.^.{.OX<X1X1X1X1X1X1X1X3X3X1X<XOX{.^.0.6.p.S.D.H.J.F.l.] & , N P L P P P P P P P P ",
"P P P P P P P P L K N , * ] l.N.M.N.m.a. .3.3.5.^.@X4XtXeXtXtXtXtXtXtXtXrX4X<X^.5.3.3. .a.m.N.M.N.l.' * 4 N L L P P P P P P P P ",
"P P P P P P P P L P N 4 * ' c.M.B.x.2...*.D #.+.!.+X4XyXyXuXyXyXyXyXyXuXyX4X<X8.*.G G &...2.x.B.N.c.[ * : C K L P P P P P P P P ",
"P P P P P P P P L K C , 7 w.b.J.%X#XOX.X].p.t.| V.oX5XqXwXwXqXqXqXqXqXwXqX6XoX:.| t.p.]..XOX*X%XJ.b.w.* : N L L P P P P P P P P ",
"P P P P P P P L L K N 4 l e.D.I.>X6X9X6X-XY.S.l.V.].;X,X,X,X>X>X,X>X,X,X>X;X].C.g.S.Y.-X5X0X6X:XT.D.e.l 4 N L L P P P P P P P P ",
"P P P P P P P P L K N , l e.D.I.,XqXyXqX>XE.H.v.d.n.K.R.R.R.R.R.I.I.R.R.R.K.n.d.v.H.E.,XwXyXwX,XI.D.e.l , N K P P P P P P P P P ",
"P P P P P P P P L L N , l w.S.K.:X6X0X6X:XT.G.h.,.h.G.L.L.H.D.D.D.D.H.L.L.G.h.,.h.G.T.:X6X9X6X:XP.S.w.l , N P P P P P P P P P P ",
"P P P P P P P P L K N ; 7 [ c.B.%X#X$X$XU.A.v.<.>.g.M.J.S.u.r.q.q.r.u.S.J.M.a.} <.h.A.U.#X$X#X%XN.c.[ & ; N P P P P P P P P P P ",
"P P P P P P P P L K N , % x | s.j.C.2.C.1.s.,.( / | m.M.n.{ b 1 1 n { n.M.m.<.! / ,.s.2.C.2.C.j.s.| x % ; N K P P P P P P P P P ",
"P P P P P P P P P K Z n > A Q / _ >.>.} _ ` W U U | h.m.h. .r t t k  .h.m.h...W U ^ ` _ _ _ _ _ / W c 4 n C P P P P P P P P P P ",
"P P P P P P P P P P K Z C m e w I ~ ( ~ W U k h r  .a.d.d.,.} ` } ) <.d.h.s. .r h k U W ~ ( ! T w s m B Z P P P P P P P P P P P ",
"P P P P P P P P P P P P K N , $ q T / W r p 2 3 s O.1.,.d.d.s.s.,.s.d.d.,.X.O.s 2 2 i A W / T w $ , B P P P P P P P P P P P P P ",
"P P P P P P P P P P P P K C , . 0 ! / ` k 2 < 2 d @.%...1.1.1.1.1.1.1.1...%.@.d 2 < 2 k ` ) T 0 . 4 C P P P P P P P P P P P P P ",
"P P P P P P P P P P P P K C , o Y } ,...Q a 3 d H J O.+.+.%.&.&.&.&.+.+.+.O.G S d 3 a O...,.} Y o 4 C K P P P P P P P P P P P P ",
"P P P P P P P P P P P P K N 4 $ Y | ,.1.O.s p j D J J J F H J J F J J D D D D F j p s Q X.,.,.Y = , N K P P P P P P P P P P P P ",
"P P P P P P P P P P P P K N 4 O Y } ,...Q s p g S H H g g g g g g g g g g j H S g p s O.X.,.} Y O , N K P P P P P P P P P P P P ",
"P P P P P P P P P P P P K N , = x / >.` o.a p d j j f g f f f s f f f f g g j j d p a o.) } / w = , N K P P P P P P P P P P P P ",
"P P P P P P P P P P P P K N ; o 0 I ~ ^ r y 3 y s s s s s s s s s s s s s s s s p 3 y r W ! I 0 o 4 N K L L P P P P P P P P P P ",
"P P P P P P P P P P P P K N , X 6 q I I 8 - 3 u u u u u u u u u u u u u u u u u 3 3 - 8 I I I 6 X ; N K L L P P P P P P P P P P ",
"P P P P P P P P P P P P K N ; . + 6 0 6 5 @ o @ # # # # # # # # # # # # # # # # @ o @ 5 6 0 6 + X ; N K L L L P P P P P P P P P ",
"P P P P P P P P P P P K K N , .   O O O X X . X X X X X X X . X . X X . X X X X . . . o O O O   X , N K L L L L P P P P P P P P ",
"P P P P P P P P P P P P K Z n , ; ; , , , , ; , , , , , , , , , , , , , , , , , , , , , , , ; ; , n C P P P P P P P P P P P P P ",
"P P P P P P P P P P P P K K Z N N N B B B B B B N N N B B B B B N N N N N N N N N N N N N N N N N C K L P P P P P P P P P P P P ",
"P P P P P P P P P P P P P K K K K K K K K K K P K K K K K K K K K K K K K K K K K K K K P K K K P P L P P P P P P P P P P P P P ",
"P P P P P P P P P P P P P P P K P P P P K K P P P K P P K K P P P P P P P P K K P P P P P P P P P P P P P P P P P P P P P P P P ",
"P P P P P P P P P P P P P P P P P P P P P P P P P P P P P P P P P P P P P P P P P P P P P P P P P P P P P P P P P P P P P P P P ",
"P P P P P P P P P P P P P P P P P P P P P P P P P P P P P P P P P P P P P P P P P P P P P P P P P P P P P P P P P P P P P P P P ",
"P P P P P P P P P P P P P P P P P P P P P P P P P P P P P P P P P P P P P P P P P P P P P P P P P P P P P P P P P P P P P P P P ",
"P P P P P P P P P P P P P P P P P P P P P P P P P P P P P P P P P P P P P P P P P P P P P P P P P P P P P P P P P P P P P P P P "
};
