/* XPM */
static char *_837209074434136e383e9c09125e00awCsibxXsLW5JJd2A[] = {
/* columns rows colors chars-per-pixel */
"32 32 168 2 ",
"   c #1A1513",
".  c #2A1108",
"X  c #271814",
"o  c #2A1914",
"O  c #321910",
"+  c #1F2615",
"@  c #202615",
"#  c #262E19",
"$  c #3F281D",
"%  c #283017",
"&  c #28301A",
"*  c #001A2B",
"=  c #3F0024",
"-  c #2F2A2E",
";  c #312723",
":  c #3F2D2C",
">  c #471C08",
",  c #4F2006",
"<  c #502209",
"1  c #5D380D",
"2  c #592E1C",
"3  c #513910",
"4  c #593A19",
"5  c #683603",
"6  c #733B00",
"7  c #4D2E25",
"8  c #472E29",
"9  c #5B2926",
"0  c #5D3122",
"q  c #5B3F21",
"w  c #5D3C2D",
"e  c #5A3E30",
"r  c #663D28",
"t  c #713F22",
"y  c #384224",
"u  c #394428",
"i  c #5D4F0C",
"p  c #6E4103",
"a  c #6E590D",
"s  c #775600",
"d  c #7B5C00",
"f  c #7B5E09",
"g  c #7D6705",
"h  c #697618",
"j  c #5D4021",
"k  c #4D502A",
"l  c #52572B",
"z  c #5F4030",
"x  c #4E5C31",
"c  c #515F33",
"v  c #68452F",
"b  c #7E4B24",
"n  c #764B2C",
"m  c #704835",
"M  c #556336",
"N  c #576638",
"B  c #586738",
"V  c #8B3B06",
"C  c #963712",
"Z  c #834000",
"A  c #88490F",
"S  c #864715",
"D  c #8F541E",
"F  c #A74D00",
"G  c #A84F00",
"H  c #A35002",
"J  c #AE5800",
"K  c #A6530E",
"L  c #B55807",
"P  c #A45412",
"I  c #B05616",
"U  c #837F00",
"Y  c #8D6519",
"T  c #AB650C",
"R  c #BE6400",
"E  c #BF7000",
"W  c #AD6B17",
"Q  c #884925",
"!  c #86542B",
"~  c #8F5B29",
"^  c #925828",
"/  c #94643C",
"(  c #9F703B",
")  c #A86D39",
"_  c #A1713C",
"`  c #AD733E",
"'  c #C36200",
"]  c #C17400",
"[  c #C77A05",
"{  c #C2740D",
"}  c #CA7D0F",
"|  c #824543",
" . c #AB6E4B",
".. c #AD7A45",
"X. c #AB6F51",
"o. c #858400",
"O. c #A2990D",
"+. c #A28B21",
"@. c #A8812F",
"#. c #B69736",
"$. c #CE8606",
"%. c #C78900",
"&. c #CA9701",
"*. c #D39200",
"=. c #DE9000",
"-. c #D19E00",
";. c #DB9E00",
":. c #D79D08",
">. c #DFA100",
",. c #D6A60F",
"<. c #DBBF00",
"1. c #E3A600",
"2. c #F0B700",
"3. c #D8A034",
"4. c #E9B32D",
"5. c #E8C600",
"6. c #E4DB00",
"7. c #F8D000",
"8. c #F2DF00",
"9. c #E3E400",
"0. c #E9EA00",
"q. c #F6E500",
"w. c #F8F700",
"e. c #F5CE2C",
"r. c #AF8743",
"t. c #B6824A",
"y. c #B8864D",
"u. c #BB884F",
"i. c #AB9768",
"p. c #C28C54",
"a. c #C28F5D",
"s. c #C6915C",
"d. c #CD965B",
"f. c #C1A748",
"g. c #D8A456",
"h. c #E3AD59",
"j. c #EAB755",
"k. c #C59360",
"l. c #CD9C66",
"z. c #D09E68",
"x. c #C7A465",
"c. c #D2A56F",
"v. c #C6A873",
"b. c #DAB57F",
"n. c #E5AB63",
"m. c #EBB164",
"M. c #EFC958",
"N. c #F5EF55",
"B. c #FFFF54",
"V. c #F3F75B",
"C. c #FFFD5B",
"Z. c #FFFF62",
"A. c #DEBC86",
"S. c #F8E99D",
"D. c #EFF19F",
"F. c #F5F19D",
"G. c #FFF89D",
"H. c #EBDEA6",
"J. c #F3E8A0",
"K. c #F7F2A5",
"L. c #FCF5A4",
"P. c #FFFFAE",
"I. c #F6EFB5",
"U. c #F7F0B6",
"Y. c #FFF5B7",
"T. c #FFFCB5",
"R. c #F3F4B9",
"E. c #FBF5BB",
/* pixels */
"B B B B B B B B B B B B B B B B B B B B B B B B B B B B B B B B ",
"B B B B B B B B B B B B B B B B B B B B B B B B B B B B B B B B ",
"B B B B B B B B B B B B B B B B B B B B B B B B B B B B B B B B ",
"B B B B B B B B B B B B B B B B B B B B B B B B B B B B B B B B ",
"B B B B B B B B B B B B B B B B B B B B N B B B B B B B B B B B ",
"B B B B B N c x x x x x x x x x x x x x x x x x x c N B B B B B ",
"B B B B B M y @ # % % % % % % % % % % % % % % # @ y M B B B B B ",
"B B B N M l a d 3 $ 4 j q q q q q q q q j 4 $ 3 d a l M N B B B ",
"B B N M u i &.-.Y m / _ _ ( ( ( ( ( ( ( _ / m Y -.&.i u M B B B ",
"B N M k > @.M.M.r./ y.p.p.p.p.p.p.p.p.p.p.y./ r.M.M.@.> k M N B ",
"B c y 1 H g.S.J.x.` s.z.l.l.l.l.l.l.l.l.z.s.` x.J.S.g.H 1 y c B ",
"B x @ 6 ' m.Y.R.v.) s.l.l.l.l.l.l.l.l.l.l.s.) v.R.Y.m.' 6 @ x B ",
"B x # 5 L n.Y.R.i.A ..u.y.y.y.y.y.y.y.y.u...A i.R.Y.n.L 5 # x B ",
"B x & p E j.G.D.i.Q ..y.t.t.t.t.t.t.t.t.y...Q i.D.G.j.E p & x B ",
"B x & s &.e.B.V.f. .k.l.s.p.p.p.p.p.p.s.l.k. .f.V.B.e.&.s & x B ",
"B x & g ,.7.q.6.#.X.a.c.b.A.A.A.A.A.A.b.c.a.X.#.6.q.7.,.g & x B ",
"B x & f ,.2.1.%.^ | ) v.H.E.U.I.I.U.E.H.v.) | ^ %.1.2.,.f & x B ",
"B x & g <.e.h.d.#.+.W x.F.T.P.P.P.P.T.F.x.W +.#.d.h.e.<.g & x B ",
"B x & o.9.C.L.K.V.6.*.3.N.Z.C.C.C.C.Z.N.3.*.6.V.K.L.C.9.o.& x B ",
"B x # U 6.C.L.L.C.q.*.*.8.w.0.9.9.0.w.8.*.*.q.C.L.L.C.6.U # x B ",
"B x + d -.4.h.h.4.;.R [ 5.5.O.h h O.5.5.[ R ;.4.h.h.4.-.d @ x B ",
"B c y 1 P ' ' ' R I C T >.:.D = = D :.>.T C I R ' ' ' P 1 y c B ",
"B N M l 4 Z F G S r 9 D $.=.[ { { [ =.$.D 9 r S G F Z 4 l M N B ",
"B B B M & > H K 0 * - n W { } } } } { W n - * 0 K H > & M B B B ",
"B B B x & 5 ] { b : w n ! ~ ~ ~ ~ ~ ~ ! n w : b { ] 5 & x B B B ",
"B B B x & p ] { b 8 v v z e e e e e e z v v 8 b { ] p & x B B B ",
"B B B x & 5 J L t : w r w w w w w w w w r w : t L J 5 & x B B B ",
"B B B x # > V V 2 ; 8 7 7 7 7 7 7 7 7 7 7 8 ; 2 V V > # x B B B ",
"B B B x @ . , < O   X o o o o o o o o o o X   O < , . @ x B B B ",
"B B B c y @ # & & & % % % % % % % % % % % % % & & # @ y c B B B ",
"B B B N c x x x x x x x x x x x x x x x x x x x x x x c N B B B ",
"B B B B B B B B B B B B B B B B B B B B B B B B B B B B B B B B "
};
