/* XPM */
static char *xpm_[] = {
/* columns rows colors chars-per-pixel */
"64 64 212 2 ",
"   c #0F0709",
".  c #180D09",
"X  c #12160B",
"o  c #161C0D",
"O  c #191D0E",
"+  c #1E1714",
"@  c #1A1E11",
"#  c #2E1108",
"$  c #3A1A07",
"%  c #231915",
"&  c #2D1C16",
"*  c #3A1C10",
"=  c #1C210F",
"-  c #1C2111",
";  c #3E2307",
":  c #252B15",
">  c #252D18",
",  c #2C351D",
"<  c #363A1B",
"1  c #000028",
"2  c #071B2A",
"3  c #04202D",
"4  c #382A24",
"5  c #461C07",
"6  c #452707",
"7  c #562706",
"8  c #4F2B1C",
"9  c #722E06",
"0  c #6E3B08",
"q  c #783B07",
"w  c #7C311C",
"e  c #4B2D24",
"r  c #422C2A",
"t  c #522E29",
"y  c #47332D",
"u  c #4B312D",
"i  c #553627",
"p  c #5B3A2D",
"a  c #683721",
"s  c #3C4626",
"d  c #3F4A27",
"f  c #3F4A29",
"g  c #5D420E",
"h  c #56411D",
"j  c #7D5204",
"k  c #694C10",
"l  c #7B4219",
"z  c #65591D",
"x  c #414C29",
"c  c #45502A",
"v  c #4A552E",
"b  c #4E582E",
"n  c #4E5A31",
"m  c #505E33",
"M  c #634524",
"N  c #65422E",
"B  c #6D482E",
"V  c #7A4A28",
"C  c #654430",
"Z  c #6D4930",
"A  c #7E5536",
"S  c #556336",
"D  c #576638",
"F  c #586738",
"G  c #883B05",
"H  c #9F3E07",
"J  c #85381F",
"K  c #8C4103",
"L  c #9F4A07",
"P  c #9E5902",
"I  c #8F4119",
"U  c #984B1A",
"Y  c #9A5E1F",
"T  c #A74D01",
"R  c #B64F01",
"E  c #AA5304",
"W  c #B45203",
"Q  c #B35907",
"!  c #BD5D01",
"~  c #A35513",
"^  c #826106",
"/  c #876808",
"(  c #91680F",
")  c #887004",
"_  c #A76401",
"`  c #B06309",
"'  c #B87203",
"]  c #A6631A",
"[  c #B86810",
"{  c #BD7111",
"}  c #814C22",
"|  c #8B5422",
" . c #88552A",
".. c #955D28",
"X. c #85563A",
"o. c #9A6329",
"O. c #8C6F32",
"+. c #996039",
"@. c #9C6C3A",
"#. c #AF762B",
"$. c #A76D34",
"%. c #A97336",
"&. c #C46E04",
"*. c #CC7300",
"=. c #CE7D00",
"-. c #C27C08",
";. c #D17500",
":. c #C57A12",
">. c #C37816",
",. c #814043",
"<. c #945741",
"1. c #9B6A42",
"2. c #AB7349",
"3. c #B27C48",
"4. c #AD7351",
"5. c #758118",
"6. c #8E8705",
"7. c #919307",
"8. c #949315",
"9. c #B58718",
"0. c #B5912F",
"q. c #C98803",
"w. c #D58603",
"e. c #C89A01",
"r. c #D49303",
"t. c #E19C00",
"y. c #CFA100",
"u. c #D5A309",
"i. c #CABB0F",
"p. c #D4B002",
"a. c #E0A700",
"s. c #E4B403",
"d. c #EDB601",
"f. c #ECB91C",
"g. c #C59F2C",
"h. c #D68F38",
"j. c #DA8E3B",
"k. c #DC9638",
"l. c #E2963D",
"z. c #DBA322",
"x. c #C9B13F",
"c. c #E8AF2A",
"v. c #E8BA38",
"b. c #DBD501",
"n. c #CBC612",
"m. c #E6C205",
"M. c #F0C308",
"N. c #E0D100",
"B. c #EFD504",
"V. c #F9DC00",
"C. c #E1E301",
"Z. c #EEEE00",
"A. c #F7E800",
"S. c #F7F501",
"D. c #F0C438",
"F. c #FCEC29",
"G. c #EFEF3C",
"H. c #F2E733",
"J. c #FBF134",
"K. c #FFFF3A",
"L. c #B48249",
"P. c #B8844A",
"I. c #BA854D",
"U. c #BC8951",
"Y. c #BD875A",
"T. c #BCAA5B",
"R. c #AE9F6E",
"E. c #B4A377",
"W. c #C08F58",
"Q. c #C5965C",
"!. c #C9955E",
"~. c #D5AB55",
"^. c #E8B958",
"/. c #C79561",
"(. c #CA9660",
"). c #CB9A64",
"_. c #CF9F68",
"`. c #D09F68",
"'. c #D1A16B",
"]. c #CCAE73",
"[. c #CAAF7A",
"{. c #D3A871",
"}. c #E3B468",
"|. c #D6D055",
" X c #FEF55E",
".X c #E3C16A",
"XX c #FAE36A",
"oX c #FCFF69",
"OX c #F3ED7D",
"+X c #DBB982",
"@X c #DFC18A",
"#X c #E1C28B",
"$X c #E7CD8A",
"%X c #EFD680",
"&X c #F3D58A",
"*X c #F7D997",
"=X c #EDEF80",
"-X c #FBE387",
";X c #FEF985",
":X c #FFFF8E",
">X c #FFFF91",
",X c #FAF19C",
"<X c #E8D8A1",
"1X c #E9EAA7",
"2X c #F3ECA7",
"3X c #FDFDAA",
"4X c #ECEDB5",
"5X c #F5EDB4",
"6X c #F4F1B7",
"7X c #FEFCB4",
"8X c #FFFFBA",
"9X c #FFFFC2",
/* pixels */
"F F F F F F F F F F F F F F F F F F F F F F F F F F F F F F F F F F F F F F F F F F F F F F F F F F F F F F F F F F F F F F F F ",
"F F F F F F F F F F F F F F F F F F F F F F F F F F F F F F F F F F F F F F F F F F F F F F F F F F F F F F F F F F F F F F F F ",
"F F F F F F F F F F F F F F F F F F F F F F F F F F F F F F F F F F F F F F F F F F F F F F F F F F F F F F F F F F F F F F F F ",
"F F F F F F F F F F F F F F F F F F F F F F F F F F F F F F F F F F F F F F F F F F F F F F F F F F F F F F F F F F F F F F F F ",
"F F F F F F F F F F F F F F F F F F F F F F F F F F F F F F F F F F F F F F F F F F F F F F F F F F F F F F F F F F F F F F F F ",
"F F F F F F F F F F F F F F F F F F F F F F F F F F F F F F F F F F F F F F F F F F F F F F F F F F F F F F F F F F F F F F F F ",
"F F F F F F F F F F F F F F F F F F F F F F F F F F F F F F F F F F F F F F F F F F F F F F F F F F F F F F F F F F F F F F F F ",
"F F F F F F F F F F F F F F F F F F F F F F F F F F F F F F F F F F F F F F F F F F F F F F F F F F F F F F F F F F F F F F F F ",
"F F F F F F F F F F F F F F F F F F F F F F F F F F F F F F F F F F F F F F F F F F F F F F F F F F F F F F F F F F F F F F F F ",
"F F F F F F F F F F F F F F F F F F F F F F F F F F F F F F F F F F F F F F F F F F F F F F F F F F F F F F F F F F F F F F F F ",
"F F F F F F F F F F F F F F F F F F F F F F F F F F F F F F F F F F F F F F F F F F F F F F F F F F F F F F F F F F F F F F F F ",
"F F F F F F F F F F F F F F F F F F F F F F F F F F F F F F F F F F F F F F F F F F F F F F F F F F F F F F F F F F F F F F F F ",
"F F F F F F F F F F F F F F F F F F F F F F F F F F F F F F F F F F F F F F F F F F F F F F F F F F F F F F F F F F F F F F F F ",
"F F F F F F F F F F F F F F F F F F F F F F F F F F F F F F F F F F F F F F F F F F F F F F F F F F F F F F F F F F F F F F F F ",
"F F F F F F F F F F F F F F F F F F F F F F F F F F F F F F F F F F F F F F F F F F F F F F F F F F F F F F F F F F F F F F F F ",
"F F F F F F F F F F F F F F F F F F F F F F F F F F F F F F F F F F F F F F F F F F F F F F F F F F F F F F F F F F F F F F F F ",
"F F F F F F F F F F F F F F F F F F F F F F F F F F F F F F F F F F F F F F F F F F F F F F F F F F F F F F F F F F F F F F F F ",
"F F F F F F F F F F F F F F F F F F F F F F F F F F F F F F F F F F F F F F F F F F F F F F F F F F F F F F F F F F F F F F F F ",
"F F F F F F F F F F F F F F F F F F F F F F F F F F F F F F F F F F F F F F F F F F F F F F F F F F F F F F F F F F F F F F F F ",
"F F F F F F F F F F F F F F F F F F F F F F F F F F F F F F F F F F F F F F F F F F F F F F F F F F F F F F F F F F F F F F F F ",
"F F F F F F F F F F F F F F F F F F F F F F F F F F F F F F F F F F F F F F F F F F F F F F F F F F F F F F F F F F F F F F F F ",
"F F F F F F F F F F F F F F F F F F F F F F F F F F F F F F F F F F F F F F F F F F F F F F F F F F F F F F F F F F F F F F F F ",
"F F F F F F F F F F F F F F F F F F F F F F F F F F F F F F F F F F F F F F F F F F F F F F F F F F F F F F F F F F F F F F F F ",
"F F F F F F F F F F F F F F F F F F F F F F F F F F F F F F F F F F F F F F F F F F F F F F F F F F F F F F F F F F F F F F F F ",
"F F F F F F F F F F F F F F F F F F F F F F F F F F F F F F F F F F F F F F F F D F F D F F F F F F F F F F F F F F F F F F F F ",
"F F F F F F F F F F F F F F F F F F F D S S S S S S S S S S S S S S S S S S S S S S S S D F F F F F F F F F F F F F F F F F F F ",
"F F F F F F F F F F F F F F F F F F F n x s s d d d d d x d d d d x d x x x x x s f s x n F F F F F F F F F F F F F F F F F F F ",
"F F F F F F F F F F F F F F F F F F F c : X o o O O O O O O O = O O o O o O o o @ o X : c D F F F F F F F F F F F F F F F F F F ",
"F F F F F F F F F F F F F F F F D S b z / ^ g e i k M M M M M M M M M M M M M 8 e g ^ ^ z v S D F F F F F F F F F F F F F F F F ",
"F F F F F F F F F F F F F F F F S f < ) e.e.( N A +.@.@.@.@.@.@.@.@.@.@.@.@.@.X.p ( e.e.) < f S F F F F F F F F F F F F F F F F ",
"F F F F F F F F F F F F F D F F v > k g.D.v.%.X.1.L.I.I.U.I.I.I.P.I.P.I.I.I.L.@.X.0.v.D.g.k > b D F F F F F F F F F F F F F F F ",
"F F F F F F F F F F F F F D n c i 9 #..X-XOXQ.@.3././.!.!.Q.Q.Q.!.!.!.!.!.(.Q.3.@.Q.%X-X.X#.9 h c b D F F F F F F F F F F F F F ",
"F F F F F F F F F F F F F S x : 0 E h.&X7X2X].%.I._.'.'.`.`.`.`._._._._._.'.).I.%.].2X7X&Xh.W 0 : x S F F F F F F F F F F F F F ",
"F F F F F F F F F F F F F S s X q ! l.*X9X6X[.$.3.!.).).).).!.).).).).).).)./.3.$.[.6X9X*Xl.! q X s S F F F F F F F F F F F F F ",
"F F F F F F F F F F F F F S d O q R j.*X9X4XE.} o.I.U.I.I.I.I.I.P.P.I.I.U.U.I.o.} E.4X8X*Xj.W 0 O s S F F F F F F F F F F F F F ",
"F F F F F F F F F F F F F S x = q ! k.&X8X1XR.V ..L.L.L.3.L.3.3.L.L.L.L.L.L.L...V R.1X7X&Xk.! 0 = x S F F F F F F F F F F F F F ",
"F F F F F F F F F F F F F S x @ j -.c.XX;XOXT.+.2.Y.W.U.I.I.I.W.I.I.3.W.U.W.Y.2.+.T.OX;XXXc.9.j O x S F F F F F F F F F F F F F ",
"F F F F F F F F F F F F F S x @ ^ e.M.F.K.G.x.3.Y.).`.).!.).!.!.(.(.!.).)._._.Y.3.x.G.K.F.M.e./ - x S F F F F F F F F F F F F F ",
"F F F F F F F F F F F F F S x @ / u.M.V.A.N.0.4.4.).{.+X#X#X@X@X#X#X#X#X+X{./.4.2.0.N.A.V.M.z.j @ x S F F F F F F F F F F F F F ",
"F F F F F F F F F F F F F S x @ / u.d.d.p.q.] ,.<.3.[.<X5X5X5X5X5X5X6X6X<X[.L.<.,.Y q.a.d.d.u./ @ x S F F F F F F F F F F F F F ",
"F F F F F F F F F F F F F S x @ / p.M.c.j.#.%.O.o.%.].2X8X8X8X8X7X7X8X8X2X].#.o.O.@.0.j.c.d.p.) @ x S F F F F F F F F F F F F F ",
"F F F F F F F F F F F F F S x O 6.b.F.XX&X#X|.n.e.9.~.OX:X:X:X:X:X:X>X>X=X~.>.e.n.|.$X$XXXF.b.6.o x S F F F F F F F F F F F F F ",
"F F F F F F F F F F F F F S x - 7.C. X:X7X3XoXS.m.w.z.H.K.K.K.K.K.K.K.K.H.z.q.m.S.oX3X7X:XK.C.7.O x S F F F F F F F F F F F F F ",
"F F F F F F F F F F F F F S f O 6.b.F.OX2X,XoXS.s.=.r.B.S.Z.C.b.b.N.Z.S.B.r.=.s.A. X2X2X;XJ.b.6.o x S F F F F F F F F F F F F F ",
"F F F F F F F F F F F F D S s X ) y.f.^.}.}.v.a.q.! q.M.B.i.8.5.5.8.i.B.d.q.! q.s.v.}.}.^.f.y./ . s S D F F F F F F F F F F F F ",
"F F F F F F F F F F F F D S x : 0 ` *.;.*.*.;.*.Q H ' u.s.9.i 1 1 p 9.s.a.' H Q &.;.*.*.;.;.Q j : x S D F F F F F F F F F F F F ",
"F F F F F F F F F F F F D D n c h I L W Q Q T U J w ] r.t.=.~ I I ~ q.t.r.] w J U E W W R L l h x n S F F F F F F F F F F F F F ",
"F F F F F F F F F F F F F D D D b < 7 G T L w i e t | :.w.w.w.=.=.w.w.w.:.| t r i l L E G 7 < b F F F F F F F F F F F F F F F F ",
"F F F F F F F F F F F F F F F F m ,   G E ~ a 2 3 y V ] { >.:.:.:.:.>.{ ] V y 3 3 a ~ E K   , n F F F F F F F F F F F F F F F F ",
"F F F F F F F F F F F F F F F F n , 6 P =.{ } 4 u C A  ...........o..... .Z C y r V { *.P ; , n F F F F F F F F F F F F F F F F ",
"F F F F F F F F F F F F F F F F b , 6 _ =.{ | i p B B C C C N N C C C C Z Z Z p e | { w._ 6 , n F F F F F F F F F F F F F F F F ",
"F F F F F F F F F F F F F F F F b , 6 P &.[ V y i N C p p p p p p p p p p C C i y } [ &.P 6 , n F F F F F F F F F F F F F F F F ",
"F F F F F F F F F F F F F F F F n , $ G E ~ w 4 y p p p p p p p p p p p p p p r r l ~ E K $ , n F F F F F F F F F F F F F F F F ",
"F F F F F F F F F F F F F F F F b , # 9 G K 8 4 4 e e e e e e e e e e e e t 8 4 4 8 G G 9 # , v F F F F F F F F F F F F F F F F ",
"F F F F F F F F F F F F F F F F b > . 5 7 7 * + % & & & & & & & & & & & & & & % % * 7 7 5 . > b F F F F F F F F F F F F F F F F ",
"F F F F F F F F F F F F F F F F m < X X @ @ O o o o O o o O o O o O O O O o o o o o O + X X < n F F F F F F F F F F F F F F F F ",
"F F F F F F F F F F F F F F F F S c d s d d d d d d d d d d d d d d d d d d d d x f f f s f c S F F F F F F F F F F F F F F F F ",
"F F F F F F F F F F F F F F F F D D S S S S S D S S S S S S S S S D S S S S S S S S S S S S D D F F F F F F F F F F F F F F F F ",
"F F F F F F F F F F F F F F F F F F F F D D F F D F F F F F F F D F F F F F D F F F F F D F F F F F F F F F F F F F F F F F F F ",
"F F F F F F F F F F F F F F F F F F F F D D F F F F F F F F F F F F F F F F F F F F F F D D F F F F F F F F F F F F F F F F F F ",
"F F F F F F F F F F F F F F F F F F F F F F F F F F F F F F F F F F F F F F F F F F F F F F F F F F F F F F F F F F F F F F F F ",
"F F F F F F F F F F F F F F F F F F F F F F F F F F F F F F F F F F F F F F F F F F F F F F F F F F F F F F F F F F F F F F F F ",
"F F F F F F F F F F F F F F F F F F F F F F F F F F F F F F F F F F F F F F F F F F F F F F F F F F F F F F F F F F F F F F F F ",
"F F F F F F F F F F F F F F F F F F F F F F F F F F F F F F F F F F F F F F F F F F F F F F F F F F F F F F F F F F F F F F F F "
};
