/* XPM */
static char *xpm_[] = {
/* columns rows colors chars-per-pixel */
"64 64 194 2 ",
"   c #1D1022",
".  c #020335",
"X  c #060936",
"o  c #090D33",
"O  c #01013B",
"+  c #000B3A",
"@  c #0C0D3A",
"#  c #011236",
"$  c #081738",
"%  c #0C1C3A",
"&  c #151B36",
"*  c #1B1B37",
"=  c #141B39",
"-  c #191B3A",
";  c #290435",
":  c #300039",
">  c #211E34",
",  c #2C1438",
"<  c #381E37",
"1  c #0A2435",
"2  c #022339",
"3  c #1C233A",
"4  c #182738",
"5  c #1E303A",
"6  c #36312F",
"7  c #252235",
"8  c #232C35",
"9  c #242239",
"0  c #232B38",
"q  c #322235",
"w  c #3B2335",
"e  c #382B33",
"r  c #2A3136",
"t  c #243338",
"y  c #2E3439",
"u  c #393434",
"i  c #353936",
"p  c #323438",
"a  c #343D38",
"s  c #590332",
"d  c #73022F",
"f  c #573322",
"g  c #422C34",
"h  c #4B2B35",
"j  c #443534",
"k  c #453C33",
"l  c #4A3639",
"z  c #573434",
"x  c #622F31",
"c  c #712032",
"v  c #663A35",
"b  c #6C3E33",
"n  c #703B32",
"m  c #3B4637",
"M  c #3D4437",
"N  c #3F4837",
"B  c #655E00",
"V  c #6E6D0B",
"C  c #767100",
"Z  c #444422",
"A  c #434D37",
"S  c #414639",
"D  c #4A483B",
"F  c #455437",
"G  c #4C5637",
"H  c #4D5937",
"J  c #4B5339",
"K  c #4E5938",
"L  c #525C37",
"P  c #54593B",
"I  c #525C38",
"U  c #74532C",
"Y  c #6B4533",
"T  c #684E30",
"R  c #744032",
"E  c #754C34",
"W  c #795633",
"Q  c #556237",
"!  c #596537",
"~  c #5D6A37",
"^  c #576438",
"/  c #586738",
"(  c #5A6938",
")  c #696534",
"_  c #727030",
"`  c #002164",
"'  c #5A235C",
"]  c #5C2776",
"[  c #5D3078",
"{  c #9E002E",
"}  c #844700",
"|  c #945E2F",
" . c #924431",
".. c #845734",
"X. c #AE4F2E",
"o. c #A8572D",
"O. c #BA5C29",
"+. c #A35531",
"@. c #BC5834",
"#. c #9F612F",
"$. c #876635",
"%. c #9D6A30",
"&. c #8B7833",
"*. c #B8682D",
"=. c #A7722F",
"-. c #B2702E",
";. c #A26C31",
":. c #BA6C30",
">. c #AC7B35",
",. c #B47C39",
"<. c #CD7D12",
"1. c #C9692B",
"2. c #C4782E",
"3. c #C3773A",
"4. c #9A706F",
"5. c #969801",
"6. c #808B37",
"7. c #908A33",
"8. c #8B9336",
"9. c #949535",
"0. c #AE942D",
"q. c #B78331",
"w. c #BC8432",
"e. c #BB8D30",
"r. c #A59835",
"t. c #A9AC2F",
"y. c #B1AA34",
"u. c #D1820F",
"i. c #DB9616",
"p. c #ED9D00",
"a. c #D1BE01",
"s. c #DEB018",
"d. c #F4B20E",
"f. c #E2A01A",
"g. c #D0932E",
"h. c #D28B30",
"j. c #C79432",
"k. c #F3992A",
"l. c #C5A531",
"z. c #DEA138",
"x. c #E6A929",
"c. c #F9AC2A",
"v. c #EAB82F",
"b. c #F5B926",
"n. c #ECAB33",
"m. c #E4B630",
"M. c #BFC335",
"N. c #E8C80F",
"B. c #FBCE0E",
"V. c #F6CE1E",
"C. c #DACE27",
"Z. c #D5C534",
"A. c #F7CF2E",
"S. c #EBCB32",
"D. c #F1C632",
"F. c #EFDA33",
"G. c #F3D132",
"H. c #F7E331",
"J. c #F4EC33",
"K. c #ADAC46",
"L. c #CB884B",
"P. c #D39845",
"I. c #DB9D5A",
"U. c #DDA845",
"Y. c #DCA058",
"T. c #E0A256",
"R. c #D18B6C",
"E. c #DDCD4F",
"W. c #DCC05F",
"Q. c #F1CE48",
"!. c #D2CB71",
"~. c #E3DB61",
"^. c #0011B0",
"/. c #0029A8",
"(. c #355099",
"). c #3C52AE",
"_. c #79638F",
"`. c #797199",
"'. c #5078FF",
"]. c #9B8CAE",
"[. c #A1A0BA",
"{. c #CE9788",
"}. c #DABAA3",
"|. c #D6CF9B",
" X c #D7D3AB",
".X c #9D97CF",
"XX c #8B94D5",
"oX c #9FA0D0",
"OX c #A4A9D9",
"+X c #8394F0",
"@X c #9EA2E0",
"#X c #93A6F0",
"$X c #AEB1E0",
"%X c #BFC1F6",
/* pixels */
"/ / / / / / / / / / / / / / / / / / / / / / / / / / / / / / / / / / / / / / / / / / / / / / / / / / / / / / / / / / / / / / / / ",
"/ / / / / / / / / / / / / / / / / / / / / / / / / / / / / / / / / / / / / / / / / / / / / / / / / / / / / / / / / / / / / / / / ",
"/ / / / / / / / / / / / / / / / / / / / / / / / / / / / / / / / / / / / / / / / / / / / / / / / / / / / / / / / / / / / / / / / ",
"/ / / / / / / / / / / / / / / / / / / / / / / / / / / / / / / / / / / / / / / / / / / / / / / / / / / / / / / / / / / / / / / / ",
"/ / / / / / / / / / / / / / / / / / / / / / / / / / / / / / / / / / / / / / / / / / / / / / / / / / / / / / / / / / / / / / / / ",
"/ / / / / / / / / / / / / / / / / / / / / / / / / / / / / / / / / / / / / / / / / / / / / / / / / / / / / / / / / / / / / / / / ",
"/ / / / / / / / / / / / / / / / / / / / / / / / / / / / / / / / / / / / / / / / / / / / / / / / / / / / / / / / / / / / / / / / ",
"/ / / / / / / / / / / / / / / / / / / / / / / / / / / / / / / / / / / / / / / / / / / / / / / / / / / / / / / / / / / / / / / / ",
"/ / / / / / / / / / / / / / / / / / / / / / / / / / / / / / / / / / / / / / / / / / / / / / / / / / / / / / / / / / / / / / / / ",
"/ / / / / / / / / / / / / / / / / / / / / / / / / / / / / / / / / / / / / / / / / / / / / / / / / / / / / / / / / / / / / / / / ",
"/ / / / / / / / / / / / / / / / / / / / / / / / / / / / / / / / / / / / / / / / / / / / / / / / / / / / / / / / / / / / / / / / ",
"/ / / / / / / / / / / / / / / / / / / / / / / / / / / / / / / / / / / / / / / / / / / / / / / / / / / / / / / / / / / / / / / / ",
"/ / / / / / / / / / / / / / / / / / / / / / / / / / / / / / / / / / / / / / / / / / / / / / / / / / / / / / / / / / / / / / / / ",
"/ / / / / / / / / / / / / / / / / / / / / / / / / / / / / / / / / / / / / / / / / / / / / / / / / / / / / / / / / / / / / / / / ",
"/ / / / / / / / / / / / / / / / / / / / / / / / / / / / / / / / / / / / / / / / / / / / / / / / / / / / / / / / / / / / / / / / ",
"/ / / / / / / / / / / / / / / / / / / / / / / / / / / / / / / / / / / / / / / / / / / / / / / / / / / / / / / / / / / / / / / / ",
"/ / / / / / / / / / / / / / / / / / / / / / / / / / / / / / / / / / / / / / / / / / / / / / / / / / / / / / / / / / / / / / / / ",
"/ / / / / / / / / / / / / / / / / / / / / / / / / / / / / / / / / / / / / / / / / / / / / / / / / / / / / / / / / / / / / / / / ",
"/ / / / / / / / / / / / / / / / / / / / / / / / / / / / / / / / / / / / / / / / / / / / / / / / / / / / / / / / / / / / / / / / ",
"/ / / / / / / / / / / / / / / / / / / / / / / / / / / / / / / / / / / / / / / / / / / / / / / / / / / / / / / / / / / / / / / / ",
"/ / / / / / / / / / / / / / / / / / / / / / / / / / / / / / / / / / / / / / / / / / / / / / / / / / / / / / / / / / / / / / / / ",
"/ / / / / / / / / / / / / / / / / / / / / / / / / / / / / / / / / / / / / / / / / / / / / / / / / / / / / / / / / / / / / / / / ",
"/ / / / / / / / / / / / / / / / / / / / / / / / / / / / / / ( / / / / / / / / / / / / / / / / / / / / / / / / / / / / / / / / / ",
"/ / / / / / / / / / / / / / / / / / / K y # . X O O O O - i H ( / / / / / / / / / / / / / / / / / / / / / / / / / / / / / / / / ",
"/ / / / / / / / / / / / / / / / / Q G m 4 7 6 j u 6 k 6 * 8 S L ^ / / ^ ( ( / ( ( ( / ^ / / / / / / / / / / / / / / / / / / / / ",
"/ / / / / / / / / / / / / / / / / K a = o 6 T _ _ V C B   o & S ^ ~ ) ( ~ ~ ( ~ ~ ( / / / / / / / / / / / / / / / / / / / / / / ",
"/ / / / / / / / / / / / / / / / G S = , ' U q.0.t.t.y.r._ i & & A I K K K G K K J K J P ^ ^ ^ / / / / / / / / / / / / / / / / / ",
"/ / / / / / / / / / / / / / / / p 5 @ g ..q.s.N.C.Z.~.!.K._ 8 o 3 0 0 0 0 0 0 0 0 0 3 a J ^ / / / / / / / / / / / / / / / / / / ",
"/ / / / / / / / / / / / / / / / $ 9 6 W w.P.U.W.!.|. X X!.K.&.Z S l ' D D F D P / P y @ i J Q / / / / / / / / / / / / / / / / / ",
"/ / / / / / / / / / / / / / / / . j U >.U.Y.4.`.[.OX+X@X|.E.y.5.&.$.&.&.6.6.8.9.t.9.F + @ y F Q / / / / / / / / / / / / / / / / ",
"/ / / / / / / / / / / / / / / / X j ..q.n.I.] ^.XX#X'.+X}.Q.C.a.j.j.h.l.y.M.y.Z.Z.y.9.! M % M S / / / / / / / / / / / / / / / / ",
"/ / / / / / / / / / / / / / / / . w E =.i.L.] ).$X%X#X.X{.x.V.B.c.k.c.A.J.J.F.F.S.S.m.y._ 1 4 3 / / / / / / / / / / / / / / / / ",
"/ / / / / / / / / / / / / / / / . < b #.<.:.' (.oX$XXX].R.p.d.b.k.k.k.b.F.H.G.D.n.v.A.Z.7.M 9 O / / / / / / / / / / / / / / / / ",
"/ / / / / / / / / / / / / / / / X w b +.1.O.f ` (.)./._.T.d.g.*.o.o.*.:.e.j.g.h.*.2.v.Z.0.) u . / / / / / / / / / / / / / / / / ",
"/ / / / / / / / / / / / / / / / + w x  .@.O.} f ' ] [ 4.z.f.o.d s s d c c  .:.1.{ X.x.m.e._ l o / / / / / / / / / / / / / / / / ",
"/ / / / / / / / / / / / / / / / % 9 q n +.O.O.1.3.h.I.I.P.,.E ; : , < < ; n -.2.o.-.g.g.q.$.h X / / / / / / / / / / / / / / / / ",
"/ / / / / / / / / / / / / / / / p 8 % j E +.@.1.u.i.n.n.>.E t @ 5 t 8 3 @ j #.%.| %.w.h.%.W g . / / / / / / / / / / / / / / / / ",
"/ / / / / / / / / / / / / / / / G N 4 9 h b  .+.;.=.q.=.E q 4 4 A H J S 4 ' b R x R $.$.E z q + / / / / / / / / / / / / / / / / ",
"/ / / / / / / / / / / / / / / / ! H a 1 % q x v Y Y E T 3 o & M Q ! ! L S 6 q ; ; , j k u 8 r r / / / / / / / / / / / / / / / / ",
"/ / / / / / / / / / / / / / / / / Q K S t 9 , q q w e e 9 8 A I ! ( ! Q G M r & & > 7 7 9 r A H / / / / / / / / / / / / / / / / ",
"/ / / / / / / / / / / / / / / / / / / J y % # X . . . . - u K / ! / / / L A 5 2 2 1 X . + t H ( / / / / / / / / / / / / / / / / ",
"/ / / / / / / / / / / / / / / / / / / / ! ! / / / / / / / / / / / / / / / / ! / / / / / / / ! ! / / / / / / / / / / / / / / / / ",
"/ / / / / / / / / / / / / / / / / / / / / / / / / / / / / / / / / / / / / / / / / / / / / / / / / / / / / / / / / / / / / / / / ",
"/ / / / / / / / / / / / / / / / / / / / / / / / / / / / / / / / / / / / / / / / / / / / / / / / / / / / / / / / / / / / / / / / ",
"/ / / / / / / / / / / / / / / / / / / / / / / / / / / / / / / / / / / / / / / / / / / / / / / / / / / / / / / / / / / / / / / / ",
"/ / / / / / / / / / / / / / / / / / / / / / / / / / / / / / / / / / / / / / / / / / / / / / / / / / / / / / / / / / / / / / / / ",
"/ / / / / / / / / / / / / / / / / / / / / / / / / / / / / / / / / / / / / / / / / / / / / / / / / / / / / / / / / / / / / / / / ",
"/ / / / / / / / / / / / / / / / / / / / / / / / / / / / / / / / / / / / / / / / / / / / / / / / / / / / / / / / / / / / / / / / ",
"/ / / / / / / / / / / / / / / / / / / / / / / / / / / / / / / / / / / / / / / / / / / / / / / / / / / / / / / / / / / / / / / / ",
"/ / / / / / / / / / / / / / / / / / / / / / / / / / / / / / / / / / / / / / / / / / / / / / / / / / / / / / / / / / / / / / / / ",
"/ / / / / / / / / / / / / / / / / / / / / / / / / / / / / / / / / / / / / / / / / / / / / / / / / / / / / / / / / / / / / / / / ",
"/ / / / / / / / / / / / / / / / / / / / / / / / / / / / / / / / / / / / / / / / / / / / / / / / / / / / / / / / / / / / / / / / ",
"/ / / / / / / / / / / / / / / / / / / / / / / / / / / / / / / / / / / / / / / / / / / / / / / / / / / / / / / / / / / / / / / / ",
"/ / / / / / / / / / / / / / / / / / / / / / / / / / / / / / / / / / / / / / / / / / / / / / / / / / / / / / / / / / / / / / / / ",
"/ / / / / / / / / / / / / / / / / / / / / / / / / / / / / / / / / / / / / / / / / / / / / / / / / / / / / / / / / / / / / / / / ",
"/ / / / / / / / / / / / / / / / / / / / / / / / / / / / / / / / / / / / / / / / / / / / / / / / / / / / / / / / / / / / / / / / ",
"/ / / / / / / / / / / / / / / / / / / / / / / / / / / / / / / / / / / / / / / / / / / / / / / / / / / / / / / / / / / / / / / / ",
"/ / / / / / / / / / / / / / / / / / / / / / / / / / / / / / / / / / / / / / / / / / / / / / / / / / / / / / / / / / / / / / / / ",
"/ / / / / / / / / / / / / / / / / / / / / / / / / / / / / / / / / / / / / / / / / / / / / / / / / / / / / / / / / / / / / / / / ",
"/ / / / / / / / / / / / / / / / / / / / / / / / / / / / / / / / / / / / / / / / / / / / / / / / / / / / / / / / / / / / / / / / ",
"/ / / / / / / / / / / / / / / / / / / / / / / / / / / / / / / / / / / / / / / / / / / / / / / / / / / / / / / / / / / / / / / / ",
"/ / / / / / / / / / / / / / / / / / / / / / / / / / / / / / / / / / / / / / / / / / / / / / / / / / / / / / / / / / / / / / / / ",
"/ / / / / / / / / / / / / / / / / / / / / / / / / / / / / / / / / / / / / / / / / / / / / / / / / / / / / / / / / / / / / / / / ",
"/ / / / / / / / / / / / / / / / / / / / / / / / / / / / / / / / / / / / / / / / / / / / / / / / / / / / / / / / / / / / / / / / "
};
