/* XPM */
static char *a9e61b32560e4a88f4d2e024d5b3b270w2iZ5dGLawPhWpc4[] = {
/* columns rows colors chars-per-pixel */
"32 32 105 2 ",
"   c #002700",
".  c #03042A",
"X  c #09002C",
"o  c #000035",
"O  c #030436",
"+  c #040537",
"@  c #060935",
"#  c #080B34",
"$  c #000038",
"%  c #03043B",
"&  c #1A0D3B",
"*  c #061735",
"=  c #091432",
"-  c #0A1836",
";  c #001A38",
":  c #001E38",
">  c #121436",
",  c #101836",
"<  c #1B1738",
"1  c #1C1F38",
"2  c #032432",
"3  c #132434",
"4  c #162039",
"5  c #1A2038",
"6  c #1D2038",
"7  c #222137",
"8  c #222038",
"9  c #302634",
"0  c #352734",
"q  c #392130",
"w  c #302E31",
"e  c #302F39",
"r  c #420A33",
"t  c #7C122F",
"y  c #512932",
"u  c #473734",
"i  c #7E3D31",
"p  c #404935",
"a  c #4B5437",
"s  c #4C5636",
"d  c #485835",
"f  c #515B37",
"g  c #525C36",
"h  c #695233",
"j  c #536037",
"k  c #546137",
"l  c #5A6237",
"z  c #5A6637",
"x  c #5A6338",
"c  c #586738",
"v  c #A4032E",
"b  c #843F30",
"n  c #8F422F",
"m  c #805435",
"M  c #845535",
"N  c #9E5F31",
"B  c #A8442C",
"V  c #A35930",
"C  c #92692C",
"Z  c #9B6F2C",
"A  c #9B6831",
"S  c #917632",
"D  c #947F34",
"F  c #A0662F",
"G  c #BC742D",
"H  c #A57A38",
"J  c #AA783D",
"K  c #CD632F",
"L  c #C96230",
"P  c #C97D30",
"I  c #B77940",
"U  c #8F8800",
"Y  c #86851E",
"T  c #BEBC00",
"R  c #A98933",
"E  c #9DA736",
"W  c #A8A935",
"Q  c #B8BB36",
"!  c #D68B24",
"~  c #DB9123",
"^  c #D79730",
"/  c #FFA32A",
"(  c #ECBD2F",
")  c #F5B326",
"_  c #FFB429",
"`  c #FFD01C",
"'  c #DFCC33",
"]  c #EEC52A",
"[  c #F2C330",
"{  c #F7D333",
"}  c #FFF231",
"|  c #AAAB4A",
" . c #DE8E46",
".. c #EEAF4A",
"X. c #F2B049",
"o. c #D9D95D",
"O. c #EDD278",
"+. c #000087",
"@. c #000088",
"#. c #000092",
"$. c #5375FF",
"%. c #E8E089",
"&. c #939FD4",
"*. c #9C9DDE",
"=. c #C4C2ED",
/* pixels */
"c c c c c c c c c c c c c c c c c c c c c c c c c c c c c c c c ",
"c c c c c c c c c c c c c c c c c c c c c c c c c c c c c c c c ",
"c c c c c c c c c c c c c c c c c c c c c c c c c c c c c c c c ",
"c c c c c c c c c c c c c c c c c c c c c c c c c c c c c c c c ",
"c c c c c c c c c c c c c c c c c c c c c c c c c c c c c c c c ",
"c c c c c c c c c c c c c c c c c c c c c c c c c c c c c c c c ",
"c c c c c c c c c c c c c c c c c c c c c c c c c c c c c c c c ",
"c c c c c c c c c c c c c c c c c c c c c c c c c c c c c c c c ",
"c c c c c c c c c c c c c c c c c c c c c c c c c c c c c c c c ",
"c c c c c c c c c c c c c c c c c c c c c c c c c c c c c c c c ",
"c c c c c c c c c c c c c c c c c c c c c c c c c c c c c c c c ",
"c c c c c c c c c f 4 @ $ % 8 k c c c c c c c c c c c c c c c c ",
"c c c c c c c c g $ q S Y U X < z x z z z j c c c c c c c c c c ",
"c c c c c c c c 1 w I ] o.%.| . $ $ $ $ o & s c c c c c c c c c ",
"c c c c c c c c @ Z ..#.*.$.O.T H R E W Q p $ s c c c c c c c c ",
"c c c c c c c c o M ! +.=.&. .` / _ } { [ ' d $ c c c c c c c c ",
"c c c c c c c c * b L   @.@.) B t n N P v ( D # c c c c c c c c ",
"c c c c c c c c 6 9 V K ~ X.J 2 ; : + G F ^ A O c c c c c c c c ",
"c c c c c c c c f ; 0 i m C = > l f e y r h u , c c c c c c c c ",
"c c c c c c c c c f 5 * o O 7 k c c a : 3 O - g c c c c c c c c ",
"c c c c c c c c c c c c c c c c c c c c c c c c c c c c c c c c ",
"c c c c c c c c c c c c c c c c c c c c c c c c c c c c c c c c ",
"c c c c c c c c c c c c c c c c c c c c c c c c c c c c c c c c ",
"c c c c c c c c c c c c c c c c c c c c c c c c c c c c c c c c ",
"c c c c c c c c c c c c c c c c c c c c c c c c c c c c c c c c ",
"c c c c c c c c c c c c c c c c c c c c c c c c c c c c c c c c ",
"c c c c c c c c c c c c c c c c c c c c c c c c c c c c c c c c ",
"c c c c c c c c c c c c c c c c c c c c c c c c c c c c c c c c ",
"c c c c c c c c c c c c c c c c c c c c c c c c c c c c c c c c ",
"c c c c c c c c c c c c c c c c c c c c c c c c c c c c c c c c ",
"c c c c c c c c c c c c c c c c c c c c c c c c c c c c c c c c ",
"c c c c c c c c c c c c c c c c c c c c c c c c c c c c c c c c "
};
