/* XPM */
static char *_9eec6b51e1d4edcfe56a5a00f2c2844PsDu6g2zfLNoa3qY[] = {
/* columns rows colors chars-per-pixel */
"32 32 18 1 ",
"  c #040404",
". c #3F3013",
"X c #002E27",
"o c #433416",
"O c #586738",
"+ c #004F43",
"@ c #007966",
"# c #6E6C68",
"$ c #866114",
"% c #84482A",
"& c #AA5A33",
"* c #D97F40",
"= c #F6A954",
"- c #00B49D",
"; c #BFB7A6",
": c #F7D099",
"> c #C8C1B3",
", c gray91",
/* pixels */
"OOOOOOOOOOOOOOOOOOOOOOOOOOOOOOOO",
"OOOOOOOOOOOOOOOOOOOOOOOOOOOOOOOO",
"OOOOOOOOOOOOOOOOOOOOOOOOOOOOOOOO",
"OOOOOOOOOOOOOOOOOOOOOOOOOOOOOOOO",
"OOOOOOOOOOOOOOOOOOOOOOOOOOOOOOOO",
"OOOOOOOOOOOOOOOOOOOOOOOOOOOOOOOO",
"OOOOOOOOOOOOOOO  OOOOOOOOOOOOOOO",
"OOOOOOOOOOOOOO @@ OOOOOOOOOOOOOO",
"OOOOOOOOOOOOO @--@ OOOOOOOOOOOOO",
"OOOOOOOOOOO  o@--@o  OOOOOOOOOOO",
"OOOOOOOOOO XX$+@@+$XX OOOOOOOOOO",
"OOOOOOOOO XX+o#>>#o+XX OOOOOOOOO",
"OOOOOOOOO ++++;oo;++++ OOOOOOOOO",
"OOOOOOOOO +@@@#;;#@@@+ OOOOOOOOO",
"OOOOOOOOO X+@------@+X OOOOOOOOO",
"OOOOOOOOOO XX++++++XX OOOOOOOOOO",
"OOOOOOOOOOO  , :: ,  OOOOOOOOOOO",
"OOOOOOOOOOO @&====&@ OOOOOOOOOOO",
"OOOOOOOOOO @@@%%%%@@@ OOOOOOOOOO",
"OOOOOOOOO == +@@@@+ == OOOOOOOOO",
"OOOOOOOOO =* ++++++ *= OOOOOOOOO",
"OOOOOOOOOO   X++++X   OOOOOOOOOO",
"OOOOOOOOOOOO ..  .. OOOOOOOOOOOO",
"OOOOOOOOOOOOOOOOOOOOOOOOOOOOOOOO",
"OOOOOOOOOOOOOOOOOOOOOOOOOOOOOOOO",
"OOOOOOOOOOOOOOOOOOOOOOOOOOOOOOOO",
"OOOOOOOOOOOOOOOOOOOOOOOOOOOOOOOO",
"OOOOOOOOOOOOOOOOOOOOOOOOOOOOOOOO",
"OOOOOOOOOOOOOOOOOOOOOOOOOOOOOOOO",
"OOOOOOOOOOOOOOOOOOOOOOOOOOOOOOOO",
"OOOOOOOOOOOOOOOOOOOOOOOOOOOOOOOO",
"OOOOOOOOOOOOOOOOOOOOOOOOOOOOOOOO"
};
