/* XPM */
static char *xpm_[] = {
/* columns rows colors chars-per-pixel */
"64 64 235 2 ",
"   c #050507",
".  c #120A08",
"X  c #0D110B",
"o  c #161509",
"O  c #070417",
"+  c #160519",
"@  c #191512",
"#  c #1B1D13",
"$  c #1C131B",
"%  c #1E1C19",
"&  c #23170B",
"*  c #321B05",
"=  c #26191B",
"-  c #1E2310",
";  c #292A09",
":  c #35250B",
">  c #26291A",
",  c #372A18",
"<  c #2C3619",
"1  c #2C351A",
"2  c #323B1E",
"3  c #35391C",
"4  c #070426",
"5  c #000E2E",
"6  c #1A0524",
"7  c #180035",
"8  c #210725",
"9  c #24042B",
"0  c #240A2A",
"q  c #2B0B2E",
"w  c #251426",
"e  c #331C27",
"r  c #2E0C32",
"t  c #280338",
"y  c #340A38",
"u  c #350B3B",
"i  c #2E1331",
"p  c #391539",
"a  c #1F2639",
"s  c #2D262A",
"d  c #312A2D",
"f  c #343D22",
"g  c #363825",
"h  c #393B36",
"j  c #452604",
"k  c #49310D",
"l  c #48361A",
"z  c #563C1C",
"x  c #653915",
"c  c #41133E",
"v  c #483528",
"b  c #543825",
"n  c #462836",
"m  c #493731",
"M  c #613C3F",
"N  c #3A4527",
"B  c #594309",
"V  c #44451F",
"C  c #774B0F",
"Z  c #654716",
"A  c #77571A",
"S  c #484823",
"D  c #434E2A",
"F  c #574A26",
"G  c #45522B",
"H  c #49562E",
"J  c #4D582E",
"K  c #525A2E",
"L  c #44453B",
"P  c #554A35",
"I  c #4A5436",
"U  c #4E5B32",
"Y  c #515E33",
"T  c #505B39",
"R  c #6A522D",
"E  c #795729",
"W  c #556436",
"Q  c #576638",
"!  c #586738",
"~  c #180F56",
"^  c #2D0445",
"/  c #3B0944",
"(  c #3D1342",
")  c #3C0450",
"_  c #420D4B",
"`  c #411345",
"'  c #45134A",
"]  c #49144E",
"[  c #471B48",
"{  c #470954",
"}  c #56045A",
"|  c #4C1652",
" . c #4D1952",
".. c #501855",
"X. c #571A5C",
"o. c #472746",
"O. c #53344D",
"+. c #562459",
"@. c #742F4E",
"#. c #6B344B",
"$. c #722C57",
"%. c #44006D",
"&. c #5D0E67",
"*. c #5C1865",
"=. c #6F0B6F",
"-. c #621C67",
";. c #670078",
":. c #790779",
">. c #671775",
",. c #6B1D75",
"<. c #5B2166",
"1. c #6B246B",
"2. c #74256C",
"3. c #6A3468",
"4. c #6E2675",
"5. c #76257A",
"6. c #78287A",
"7. c #7A347C",
"8. c #494943",
"9. c #555749",
"0. c #464C55",
"q. c #584659",
"w. c #5A5956",
"e. c #6E5351",
"r. c #62664A",
"t. c #73634C",
"y. c #6A6756",
"u. c #674369",
"i. c #675768",
"p. c #6B6864",
"a. c #767268",
"s. c #7A6C70",
"d. c #7E7977",
"f. c #992823",
"g. c #885911",
"h. c #B65D1B",
"j. c #884C28",
"k. c #855926",
"l. c #92522C",
"z. c #986631",
"x. c #B57426",
"c. c #B36C36",
"v. c #A87435",
"b. c #C87C3B",
"n. c #88024F",
"m. c #821578",
"M. c #873569",
"N. c #832679",
"B. c #914D54",
"V. c #987750",
"C. c #B27253",
"Z. c #83436C",
"A. c #A15C75",
"S. c #857D6C",
"D. c #827F78",
"F. c #B26D6F",
"G. c #D6883A",
"H. c #BD8945",
"J. c #87867B",
"K. c #928F74",
"L. c #A88E72",
"P. c #CF8D46",
"I. c #D38E46",
"U. c #D8944A",
"Y. c #E79949",
"T. c #E39A58",
"R. c #F2A348",
"E. c #EBA352",
"W. c #F6A753",
"Q. c #F3A953",
"!. c #FFB353",
"~. c #FCB259",
"^. c #D49365",
"/. c #E69B63",
"(. c #C9A673",
"). c #F0B56D",
"_. c #FEC378",
"`. c #730F82",
"'. c #7E2981",
"]. c #777E85",
"[. c #840587",
"{. c #871989",
"}. c #930095",
"|. c #991998",
" X c #8A308A",
".X c #9B259A",
"XX c #A0229F",
"oX c #A80AAA",
"OX c #A214A1",
"+X c #B50BB4",
"@X c #B819B4",
"#X c #A726A4",
"$X c #B230AF",
"%X c #B827B5",
"&X c #C129BE",
"*X c #92518F",
"=X c #8E6884",
"-X c #837D89",
";X c #977A8F",
":X c #A27498",
">X c #B649B0",
",X c #C557BE",
"<X c #C72AC3",
"1X c #D22ACD",
"2X c #CD37C7",
"3X c #DB2CD5",
"4X c #CB43C6",
"5X c #D173C6",
"6X c #8B8985",
"7X c #908D82",
"8X c #989588",
"9X c #978793",
"0X c #9B9894",
"qX c #A69592",
"wX c #9FA086",
"eX c #A9A394",
"rX c #ADA995",
"tX c #A9A59B",
"yX c #BA92AB",
"uX c #B4ACA4",
"iX c #BAB3A9",
"pX c #B4B8BC",
"aX c #CFA98A",
"sX c #E0BF92",
"dX c #C5BCAE",
"fX c #CBB2BA",
"gX c #F6CD91",
"hX c #FCD899",
"jX c #CAC4B8",
"kX c #D3C1B7",
"lX c #CACACB",
"zX c #D5CDC4",
"xX c #DCD6CB",
"cX c #DFDFDF",
"vX c #E2DDD1",
/* pixels */
"! ! ! ! ! ! ! ! ! ! ! ! ! ! ! ! Q Q Q Q Q ! Q Q Q ! ! ! ! ! ! ! ! ! ! ! ! ! ! ! ! ! ! ! ! ! ! ! ! ! ! ! ! ! ! ! ! ! ! ! ! ! ! ! ",
"! ! ! ! ! ! ! ! ! ! ! ! ! ! ! ! Q W Q W Q Q Q Q Q Q ! ! ! ! ! ! ! ! ! ! ! ! ! ! ! ! ! ! ! ! ! ! ! ! ! ! ! ! ! ! ! ! ! ! ! ! ! ! ",
"! ! ! ! ! ! ! ! ! ! ! ! ! ! ! ! Q Y H G G G U W ! ! ! ! ! ! ! ! ! ! ! ! ! ! ! ! ! ! ! ! ! ! ! ! ! ! ! ! ! ! ! ! ! ! ! ! ! ! ! ! ",
"! ! ! ! ! ! ! ! ! ! ! ! ! ! ! ! Y N N 2 2 N G U ! ! ! ! ! ! ! ! ! ! ! ! ! ! ! ! ! ! ! ! ! ! ! ! ! ! ! ! ! ! ! ! ! ! ! ! ! ! ! ! ",
"! ! ! ! ! ! ! ! ! ! ! ! ! Q Q W T I 8.9.9.8.8.W Q Q Q Q Q Q ! ! ! ! ! ! ! ! ! ! ! ! ! ! ! ! ! ! ! ! ! ! ! ! ! ! ! ! ! ! ! ! ! ! ",
"! ! ! ! ! ! ! ! ! ! ! ! ! Q W H T p.].7X6XJ.p.9.U W W Q ! ! ! ! ! ! ! ! ! ! ! ! ! ! ! ! ! ! ! ! ! ! ! ! ! ! ! ! ! ! ! ! ! ! ! ! ",
"! ! ! ! ! ! ! ! ! ! ! ! Q Q D 2 9.8XuXjXjXiX8Xy.f G Y Q ! ! ! Q ! ! ! ! Q Q ! ! ! ! ! ! ! ! ! ! ! ! ! ! ! ! ! ! ! ! ! ! ! ! ! ! ",
"! ! ! ! ! ! ! ! ! ! Q Q W J 2 L J.iXjXvXxXlXuXD.L 2 H W Q Q ! W W W W W ! ! Q ! ! ! ! ! ! ! ! ! ! ! ! ! ! ! ! ! ! ! ! ! ! ! ! ! ",
"! ! ! ! ! ! ! ! ! Q Q Y T 9.y.6XiXzXxXvXvXzXpX0Xs.N I I J J J J H H H H J U Q Q Q ! ! ! ! ! ! ! ! ! ! ! ! ! ! ! ! ! ! ! ! ! ! ! ",
"! ! ! ! ! ! ! ! Q Q U D I p.0XiXlXxXxXxXlXdXiXtX8Xa.9.N f 2 f g f f g 1 f G Y Q ! ! ! ! ! ! ! ! ! ! ! ! ! ! ! ! ! ! ! ! ! ! ! ! ",
"! ! ! ! ! ! ! ! ! W H N L d.uXzXxXzXzXjXuXtXtXtXtX6Xy.h e p [ [ [ o.c r e g J Y Q Q ! ! ! ! ! ! ! ! ! ! ! ! ! ! ! ! ! ! ! ! ! ! ",
"! ! ! ! ! ! ! ! ! W G 1 L d.tXiXdXiXuXtX0X8X8X0X0X6Xi.O.} &.:.m.m.m.=.-.] d L J W Q ! ! ! ! ! ! ! ! ! ! ! ! ! ! ! ! ! ! ! ! ! ! ",
"! ! ! ! ! ! ! ! Q W G 1 s 8.a.J.J.d.d.d.D.].J.J.].s.i.1.[.|.#X%X%X#XXXN.1.[ d h D W ! ! ! ! ! ! ! ! ! ! ! ! ! ! ! ! ! ! ! ! ! ! ",
"! ! ! ! ! ! ! ! Q W I f > s N 8.8.8.L 8.w.p.p.a.p.i.u.7.|.%X<X1X1X&X$X.X6.+.c s 2 H ! ! W ! W ! ! ! ! ! ! ! ! ! ! ! ! ! ! ! ! ! ",
"! ! ! ! ! ! Q Q Q Q U G f 1 N N 2 > X @ h 8.0.w.w.i.u.'.#X%X1X3X3X1X&X#X X<.o.w > N G K G H Y ! ! ! ! ! ! ! ! ! ! ! ! ! ! ! ! ! ",
"! ! ! ! ! ! ! Q Q Q W U H I U T N 1 X   X g 8.w.p.i.u.'.XX&X1X3X3X3X&X#X5.+.o.e - < < 2 < 2 N W ! ! ! ! ! ! ! ! ! ! ! ! ! ! ! ! ",
"! ! ! ! ! ! ! ! ! ! Q Q Q Q Q Q G 2 X     @ h 9.y.i.u.6.|.%X&X1X1X<X%X.X2.3.O.v ; ; @ X   @ f H W ! W ! ! ! ! ! ! ! ! ! ! ! ! ! ",
"! ! ! ! ! ! ! ! ! ! ! ! Q Q Q Y N 1 $ O   . v 9.t.y.u.2.[.OX@X%X@X@XOX{.1.+.R Z B : $ O O + > f H W W ! ! ! ! ! ! ! ! ! ! ! ! ! ",
"! ! ! ! ! ! ! ! ! ! ! ! Q Y G 2 1 w $ 6 O w b E t.B.#.*.;.[.}.}.}.}.`.;.X.#.R E C l w 4 7 8 = > 2 N Y W ! ! ! ! ! ! ! ! ! ! ! ! ",
"! ! ! ! ! ! ! ! ! ! ! ! W H 2 > $ q r t 7 i b E k.E P +.<.4.7. X*XN.4.<.+.M E g.A b i 7 t q 0 = > 2 H W ! ! ! ! ! ! ! ! ! ! ! ! ",
"! ! ! ! ! ! ! ! ! ! ! ! W G < @ 8 y u u 7 i b Z C A m O.u.D.;X9X;X;X=Xi.O.M R A C b i t y u y 8 - < G W ! ! ! ! ! ! ! ! ! ! ! ! ",
"! ! ! ! ! ! ! ! ! ! ! ! W H < # q c ' _ t r k k B F P w.d.qXuXiXiXuX0Xd.w.m F Z B d q t _ ' u q @ < H Q ! ! ! ! ! ! ! ! ! ! ! ! ",
"! ! ! ! ! ! ! ! ! ! Q Q W H 2 % q ` ] ] u y w * l P 9.a.8XuXjXjXjXjXuX7Xa.9.P l * = r / ] ] ` i # 2 H Y ! ! ! ! ! ! ! ! ! ! ! ! ",
"! ! ! ! ! ! ! ! Q Q Q W W H 2 % i ` | | _ u 8 . s 9.a.7X0XeXrXuXrXuXtX0XJ.a.9.s . 8 y _ |  .' i % 2 H Q ! ! ! ! ! ! ! ! ! ! ! ! ",
"! ! ! ! ! ! ! ! ! ! ! ! W H 2 % r '  . .] u 8   < r.8XtXwXK.a.y.t.a.K.tXrX8Xr.<   + / ]  . .` i - < H W ! ! ! ! ! ! ! ! ! ! ! ! ",
"! ! ! ! ! ! ! ! ! ! ! ! W H 2 # i `  .....{ / y m s.eXuXrXS.P * * P S.rXiXeXa.L y y {  ... .` i % 2 H W ! ! ! ! ! ! ! ! ! ! ! ! ",
"! ! ! ! ! ! ! ! ! ! ! ! Y H 2 # 0 u ' ..X.-.=.:.*X=XqXrXwXK.t.e.r.y.K.wXrX0X=X'.:.;.*.+...] u 8 % 2 H W ! ! ! ! ! ! ! ! ! ! ! ! ",
"! ! ! ! ! ! ! ! ! ! ! ! W H 2 # + q u  .X.,.{.oX#X>X;XJ.K.wXK.wXL.wXK.K.K.9X>X$XOX|.4.X. .u q + - 2 H W ! ! ! ! ! ! ! ! ! ! ! ! ",
"! ! ! ! ! ! ! ! ! ! ! ! Q H 2 # . + y ] X.5.XX@X&X>X*Xd.J.eXdXdXdXiX0X6Xs.*X>X<X@X|.5.+.' y + X # 2 H Q ! ! ! ! ! ! ! ! ! ! ! ! ",
"! ! ! ! ! ! ! ! ! ! ! ! W H < #   + q `  .1. X%X&X$X.X*X:XyXfXfXfXfXyX:X*X.X$X&X%X.X1. .` t +   # < H Y ! ! ! ! ! ! ! ! ! ! ! ! ",
"! ! ! ! ! ! ! ! ! ! ! ! W G 1 o + 9 r u p ..,.{.#X$X$X>X4X5X5X5X5X5X5X,X,X$X$X.X{.2...u p r 8 + X < H W ! ! ! ! ! ! ! ! ! ! ! ! ",
"! ! ! ! ! ! ! ! ! ! ! ! W H < # + 0 q q 6 y ] -.'..X$X<X2X4X4X4X4X2X2X2X<X$XXX'.-.] y 6 q q 0 + # < H W ! ! ! ! ! ! ! ! ! ! ! ! ",
"! ! ! ! ! ! ! ! ! ! ! ! W Y N N s $ 0 $ 6 9 9 / &.m.OX+X+X+XoXoX+XoX+X+X+XOX[.} ^ 9 0 6 q 0 w > f D U Q ! ! ! ! ! ! ! ! ! ! ! ! ",
"! ! ! ! ! ! ! ! ! ! ! ! ! W W H N s + 6 w q 6 6 / &.:.[.}.`.`.:.`.`.[.[.[.:.&./ i 6 0 $ 6 + > N H Y W Q ! ! ! ! ! ! ! ! ! ! ! ! ",
"! ! ! ! ! ! ! ! ! ! ! ! ! ! ! Q H 2 - $ $ i o.0.q.q.+.|  .O.q.q.q.q.O.+.| +.q.q.0.o.i $ $ - 2 G Q ! Q Q ! ! ! ! ! ! ! ! ! ! ! ! ",
"! ! ! ! ! ! ! ! ! ! ! ! ! ! ! ! W G 2 > o d i.-X9X-X0.5 g t.V.K.F.K.E g 5 0.-X9X-Xi.d o > 2 G W Q ! ! ! ! ! ! ! ! ! ! ! ! ! ! ! ",
"! ! ! ! ! ! ! ! ! ! ! ! ! ! ! ! W W K N < h 6XpXlXpX].5 F L.sXsXsXaXL.m 5 ].pXpXpX6Xh 1 N U W Q Q ! ! ! ! ! ! ! ! ! ! ! ! ! ! ! ",
"! ! ! ! ! ! ! ! ! ! ! ! ! ! ! ! ! ! W H 1 L 0XlXcXlX].h t.(.gXhXhXgX(.V.m ].lXcXlX0X8.1 H W Q Q ! ! ! ! ! ! ! ! ! ! ! ! ! ! ! ! ",
"! ! ! ! ! ! ! ! ! ! ! ! Q ! Q Q ! W U N s q.9XfXxXkX;Xz.H.).gXhXhXgX).H.V.7XlXlXfX9Xq.g N Y W Q ! ! ! ! ! ! ! ! ! ! ! ! ! ! ! ! ",
"! ! ! ! ! ! ! ! ! ! ! ! Q Q Q Q W G N d ] 3.=XqXaXaX^.U.E.~._._._._.~.Y.U.^.aXaXqX=X3.( d N G Y ! ! ! ! ! ! ! ! ! ! ! ! ! ! ! ! ",
"! ! ! ! ! ! ! ! ! ! ! ! ! ! Q W G f i { &.4.M.B.c.b.Y.W.W.W.Q.Q.Q.Q.Q.!.R.U.b.c.B.N.5.&.{ i f I W Q Q Q ! ! ! ! ! ! ! ! ! ! ! ! ",
"! ! ! ! ! ! ! ! ! ! ! ! Q Q Y U N a ) *.'.'.:.n.f.h.b.Y.Y.Y.G.G.G.G.Y.Y.Y.G.h.f.n.m.'.5.*./ a N H W W Q ! ! ! ! ! ! ! ! ! ! ! ! ",
"! ! ! ! ! ! ! ! ! ! Q Q Q W G 2 a ~ %.;.`.'. XN.M.B.C.c.x.x.x.x.x.x.x.x.c.C.B.M.N.'.'.`.;.%.~ a f G W Q ! ! ! ! ! ! ! ! ! ! ! ! ",
"! ! ! ! ! ! ! ! ! ! Q Q ! K V l O.3.7.N.5.5.5.5.6.$.B.j.l.j.j.j.j.j.j.g.j.B.M.6.5.5.5.7.N.7.3.O.v V K W ! ! ! Q ! ! ! ! ! ! ! ! ",
"! ! ! ! ! ! ! ! ! Q W Y K R E z.C.F.F.*XZ.1.*.>.>.1.$.@.@.@.@.@.@.@.@.@.@.$.1.>.;.&.3.Z.A.F.F.C.z.A R K W W Q Q ! ! ! ! ! ! ! ! ",
"! ! ! ! ! ! ! ! ! Q K G F E v.P.T./.^.H.B.O.^ ) *.1.1.2.2.2.2.2.2.2.2.2.2.1.-.*.) ^ m B.F.^./.T.P.v.A F G K W Q ! ! ! ! ! ! ! ! ",
"! ! ! ! ! ! ! ! ! W G 3 B z.U.Q.~.~.R.G.z.l 5 7 | *.4.6.6.6.5.5.6.6.6.'.5.1.-.| ^ 5 l z.I.Q.!.~.Q.P.z.F 3 H W ! ! ! ! ! ! ! ! ! ",
"! ! ! ! ! ! ! ! ! W G 3 F v.Y.~.~.!.R.G.g.k O 7 { X.-.,.,.,.,.4.,.,.,.,.,.>.X._ 7 O j g.G.R.!.!.~.Y.v.Z 3 G Q ! ! ! ! ! ! ! ! ! ",
"! ! ! ! ! ! ! ! ! W G 2 Z v.Y.~.~.W.Y.b.g.j 4 ^ ] X.X.*.*.*.*.*.*.*.*.*.*.*.X.] t 6 j g.b.R.W.!.Q.E.v.B 3 G W ! ! ! ! ! ! ! ! ! ",
"! ! ! ! ! ! ! ! ! W H 2 z z.U.E.W.Y.b.b.f.j 6 ^ {  . . . . . . ... . . . .| ..] ^ 4 j j.c.b.Y.W.Q.U.z.b 2 H W ! ! ! ! ! ! ! ! ! ",
"! ! ! ! ! ! ! ! ! W K G K E v.U.G.b.c.l.k * + t _ | ] ] ] ] ] ] '  .| ] ] _ ] _ t 4 * x l.h.G.I.G.C.E F G K W ! ! ! ! ! ! ! ! ! ",
"! ! ! ! ! ! ! ! ! ! W Y K R E z.z.l.j.x j & O t / / _ | | |  . . . .| | | _ ' u 9 6 & j x f.l.z.z.k.K Y Y W ! ! ! ! ! ! ! ! ! ! ",
"! ! ! ! ! ! ! ! ! ! ! ! ! K S l l k l : o . + 6 r u ' | | | | ] ' ]  . . .` p i 6 + . & : , k l V V K W Q Q ! ! ! ! ! ! ! ! ! ! ",
"! ! ! ! ! ! ! ! ! ! ! ! ! W D 2 < < 1 > o . & = e p n o.[ [ ( ( ` ` [ [ [ n p e = @ . o > 2 2 < 2 G W Q ! ! ! ! ! ! ! ! ! ! ! ! ",
"! ! ! ! ! ! ! ! ! ! ! ! Q W Y H H K G N - . & , l v m n n e r t 9 r e n m m v , , & . - N G J H K Y W Q ! ! ! ! ! ! ! ! ! ! ! ! ",
"! ! ! ! ! ! ! ! ! ! ! ! Q Q W Q W ! Y H 3 - ; : l l l l , > % $ $ = > , v l l l : & - 2 G W Q W W W ! Q ! ! ! ! ! ! ! ! ! ! ! ! ",
"! ! ! ! ! ! ! ! ! ! ! ! ! ! ! ! ! ! ! K D 2 3 V S S V V V V 2 3 f 2 2 V V V F V V 3 2 G Y Q ! ! ! ! ! ! ! ! ! ! ! ! ! ! ! ! ! ! ",
"! ! ! ! ! ! ! ! ! ! ! ! ! ! ! ! ! ! ! ! K J H H K K K K H H H G H H H J K K K Y J H J K Q Q ! ! ! ! ! ! ! ! ! ! ! ! ! ! ! ! ! ! ",
"! ! ! ! ! ! ! ! ! ! ! ! ! ! ! ! ! ! ! ! ! ! W ! ! ! Q ! W W W W W Q W Q ! ! ! ! ! W W Q Q Q ! ! ! ! ! ! ! ! ! ! ! ! ! ! ! ! ! ! ",
"! ! ! ! ! ! ! ! ! ! ! ! ! ! ! ! ! ! ! ! ! ! ! ! ! ! ! ! Q Q ! ! Q Q Q Q ! ! ! ! ! ! ! ! Q Q ! ! ! ! ! ! ! ! ! ! ! ! ! ! ! ! ! ! ",
"! ! ! ! ! ! ! ! ! ! ! ! ! ! ! ! ! ! ! ! ! ! ! ! ! ! ! ! ! ! ! ! ! ! ! ! ! ! ! ! ! ! ! ! ! ! ! ! ! ! ! ! ! ! ! ! ! ! ! ! ! ! ! ! ",
"! ! ! ! ! ! ! ! ! ! ! ! ! ! ! ! ! ! ! ! ! ! ! ! ! ! ! ! ! ! ! ! ! ! ! ! ! ! ! ! ! ! ! ! ! ! ! ! ! ! ! ! ! ! ! ! ! ! ! ! ! ! ! ! ",
"! ! ! ! ! ! ! ! ! ! ! ! ! ! ! ! ! ! ! ! ! ! ! ! ! ! ! ! ! ! ! ! ! ! ! ! ! ! ! ! ! ! ! ! ! ! ! ! ! ! ! ! ! ! ! ! ! ! ! ! ! ! ! ! ",
"! ! ! ! ! ! ! ! ! ! ! ! ! ! ! ! ! ! ! ! ! ! ! ! ! ! ! ! ! ! ! ! ! ! ! ! ! ! ! ! ! ! ! ! ! ! ! ! ! ! ! ! ! ! ! ! ! ! ! ! ! ! ! ! "
};
