/* XPM */
static char *_6d4107e8ea048e9abd8b762396a52d0Jr4sTDz5HSOngjyZ[] = {
/* columns rows colors chars-per-pixel */
"32 32 161 2 ",
"   c #18180A",
".  c #001812",
"X  c #131E16",
"o  c #261E0E",
"O  c #1B220E",
"+  c #04251D",
"@  c #182516",
"#  c #1E2917",
"$  c #17281B",
"%  c #1C2E1D",
"&  c #2B240F",
"*  c #2C331A",
"=  c #3D361B",
"-  c #011C21",
";  c #012524",
":  c #012923",
">  c #00262D",
",  c #1E2926",
"<  c #053027",
"1  c #01312B",
"2  c #133023",
"3  c #193325",
"4  c #013B33",
"5  c #123E34",
"6  c #2C2D21",
"7  c #23382B",
"8  c #2B3F2B",
"9  c #353F21",
"0  c #313D2A",
"q  c #473109",
"w  c #4A2112",
"e  c #73380E",
"r  c #1D412F",
"t  c #084237",
"y  c #02443A",
"u  c #004A3F",
"i  c #1D4130",
"p  c #194338",
"a  c #184B3E",
"s  c #364021",
"d  c #3A4424",
"f  c #3E4926",
"g  c #36402B",
"h  c #244334",
"j  c #2A4C36",
"k  c #224739",
"l  c #364330",
"z  c #5E4516",
"x  c #614A1B",
"c  c #454724",
"v  c #4E4D24",
"b  c #434F2A",
"n  c #514321",
"m  c #504B25",
"M  c #534D2A",
"N  c #45522C",
"B  c #48552F",
"V  c #4B582F",
"C  c #475631",
"Z  c #4E5B31",
"A  c #505E32",
"S  c #6E5622",
"D  c #7D5029",
"F  c #72592B",
"G  c #556336",
"H  c #576638",
"J  c #586738",
"K  c #756131",
"L  c #024C41",
"P  c #114D47",
"I  c #015044",
"U  c #00574D",
"Y  c #035B4C",
"T  c #005F50",
"R  c #314A44",
"E  c #006253",
"W  c #016B5B",
"Q  c #196252",
"!  c #266353",
"~  c #316E58",
"^  c #33745F",
"/  c #007463",
"(  c #087765",
")  c #007C68",
"_  c #0F7F6E",
"`  c #1F7061",
"'  c #107B68",
"]  c #207161",
"[  c #367260",
"{  c #444F4C",
"}  c #4A5C45",
"|  c #47584F",
" . c #575041",
".. c #59584A",
"X. c #4E5F5B",
"o. c gray34",
"O. c #476553",
"+. c #516150",
"@. c #5C6751",
"#. c #6A684D",
"$. c #62665C",
"%. c #5A7466",
"&. c #7E6E61",
"*. c #6D7964",
"=. c #945327",
"-. c #806933",
";. c #966731",
":. c #9B6C38",
">. c #A46431",
",. c #B16A31",
"<. c #AA783B",
"1. c #B8763A",
"2. c #D17F39",
"3. c #AE7B57",
"4. c #887C6C",
"5. c #827C72",
"6. c #01846F",
"7. c #018A73",
"8. c #008D7A",
"9. c #00927D",
"0. c #2B8977",
"q. c #358E7A",
"w. c #5E8A7D",
"e. c #72837A",
"r. c #A98E5B",
"t. c #D98E49",
"y. c #DB954A",
"u. c #C29556",
"i. c #EA9C47",
"p. c #E69F4E",
"a. c #E69C51",
"s. c #E4A04F",
"d. c #E3A350",
"f. c #FBA651",
"g. c #FEB25A",
"h. c #D59B6E",
"j. c #019581",
"k. c #009C88",
"l. c #109884",
"z. c #01A58F",
"x. c #00A891",
"c. c #1EA591",
"v. c #00B19A",
"b. c #00BFA7",
"n. c #788385",
"m. c #51A996",
"M. c #75B8A3",
"N. c #9B8F89",
"B. c #919084",
"V. c #9C9489",
"C. c #8E9E90",
"Z. c #A8988B",
"A. c #A09B90",
"S. c #AEA79A",
"D. c #A3AD9E",
"F. c #AAADAD",
"G. c #ADBBA8",
"H. c #CEA697",
"J. c #FFC882",
"K. c #F2D09D",
"L. c #BFC7C9",
/* pixels */
"J J J J J J J J J J J J J J J J J J J J J J J J J J J J J J J J ",
"J J J J J J J J J J J J J J J H H J J J J J J J J J J J J J J J ",
"J J J J J J J J J J J J J H G V V G H J J J J J J J J J J J J J ",
"J J J J J J J J J J J J J G B 8 8 B G H J J J J J J J J J J J J ",
"J J J J J J J J J J J J G C j Y Y j C G J J J J J J J J J J J J ",
"J J J J J J J J J J J H B h W 7.7.W h B H J J J J J J J J J J J ",
"J J J J J J J J J J H N r W j.v.v.j.W i N H J J J J J J J J J J ",
"J J J J J J J J Z f s * 5 ( z.b.b.z.( 5 * s f Z J J J J J J J J ",
"J J J J J J J A d # o q M ~ 9.x.x.8.~ M q o # d A J J J J J J J ",
"J J J J J J A d % ; 6 z S } / q.q./ } S z 6 ; % d A J J J J J J ",
"J J J J J Z d % + 1 h m x ..e.D.D.e...x m h 1 + % d Z J J J J J ",
"J J J J J f % 1 1 4 t 8  .5.A.S.S.A.5. .8 t 4 1 1 % f J J J J J ",
"J J J J J d 2 y L I u p $.V.Z.&.&.Z.V.$.p u I L y 2 d J J J J J ",
"J J J J J d 3 u E W E Q %.B.Z.4.4.Z.B.%.Q E W E u 3 f J J J J J ",
"J J J J J d $ y E / ) 6.0.w.C.G.G.C.w.0.6.) / E y $ d J J J J J ",
"J J J J J f # < u Y / 9.z.c.m.M.M.m.c.z.9./ T L < # f J J J J J ",
"J J J J J Z 9 @ : 4 Y _ l.k.j.8.8.j.k.l._ Y 4 : @ 9 Z J J J J J ",
"J J J J J J A 9 $ . , { X.R l #.#.l R X.{ , . $ 9 A J J J J J J ",
"J J J J J J J G d   o.F.L.n.-.K.K.-.n.L.F.o.  d G J J J J J J J ",
"J J J J J J J J b O | V.H.h.d.J.J.d.h.H.N.| O b J J J J J J J J ",
"J J J J J J J A g P ` *.3.t.i.a.a.i.t.3.*.] P g A J J J J J J J ",
"J J J J J J A M } [ ' ^ #.:.,.>.>.,.:.#.^ ' [ } M A J J J J J J ",
"J J J J J Z F <.u.r.@.U ! O.@.+.+.@.O.! U @.r.u.<.F Z J J J J J ",
"J J J J J d ;.s.g.y.D > U W W W W W W U > D y.g.s.;.d J J J J J ",
"J J J J J d :.p.f.2.e - L T E T T E T L - e 2.f.p.;.d J J J J J ",
"J J J J J Z K <.1.=.w ; t L L L L L L t ; w =.1.<.K Z J J J J J ",
"J J J J J J Z M n =   X 7 k a y y a k 7 X   = n M Z J J J J J J ",
"J J J J J J H A Z N * & = d 0 3 3 0 d = & * b Z A H J J J J J J ",
"J J J J J J J J J G N c v m c d d c m v c N G J J J J J J J J J ",
"J J J J J J J J J J J J J J J J J J J J J J J J J J J J J J J J ",
"J J J J J J J J J J J J J J J J J J J J J J J J J J J J J J J J ",
"J J J J J J J J J J J J J J J J J J J J J J J J J J J J J J J J "
};
