/* XPM */
static char *cdca9873864243c1a4a4aaa56ba49c39owTrK1y3WNglzUdM[] = {
/* columns rows colors chars-per-pixel */
"48 48 4 1 ",
"  c #0F1A1B",
". c #162527",
"X c #1D2E30",
"o c #243A3C",
/* pixels */
"                                                ",
"....... .X.X... ... . . ....... ... . . ....... ",
"....... .X.X... ... . . ....... ... . . ....... ",
"..XXXXX XXXXXXX XXXXXXX XXXXXXX XXXXXXX ....... ",
"..XXXXX.XXXXXXX.XXXXXXX.XXXXXXX.XXXXXXX ....... ",
"..XXXXX.XXXXXXX.XXXXXXX.XXXXXXX.XXXXXXX ....... ",
"XXXXXXX.XXXXXXX.XXXXXXX.XXXXXXX.XXXXXXX ....... ",
"..XXXXX.ooooooo.XXXXXXX.ooooooo.XXXXXXX XXXXXXX ",
"   ..................................           ",
"..XXXXo.ooooooo.XXXXXXX.oooooooXooooooo XXXXXXX ",
"XXXXXXo.ooooooo.ooooooo.oooooooXooooooo XXXXXXX ",
"..XXXXo.oooooooXoooooooXoooooooXooooooo.XXXXXXX ",
"..XXXXo.oooooooXoooooooXoooooooXooooooo.XXXXXXX ",
"..XXXXo.oooooooXoooooooXoooooooXooooooo.XXXXXXX ",
"..XXXXo.oooooooXoooooooXoooooooXooooooo.XXXXXXX ",
"..XXXXo.oooooooXoooooooXoooooooXooooooo.XXXXXXX ",
"   .....XXXXXXXXXXXXXXXXXXXXXXXXXXXXXXX......   ",
"  XXXXX.oooooooXoooooooXoooooooXooooooo.oXXXXXX ",
"  XXXXX.oooooooXoooooooXoooooooXooooooo.oXXXXXX ",
"..XXXXX.oooooooXoooooooXoooooooXooooooo.oXXXXXX ",
"  XXXXX.oooooooXoooooooXoooooooXooooooo.oXXXXXX ",
"..XXXXX.oooooooXoooooooXoooooooXooooooo.oXXXXXX ",
"..XXXXX.oooooooXoooooooXoooooooXooooooo oXXXXXX ",
"..XXXXX.oooooooXoooooooXoooooooXooooooo oXXXXXX ",
"   ......XXXXXXXXXXXXXXXXXXXXXXXXXXXXX. .....   ",
"..XXXXo.oooooooXoooooooXoooooooXooooooo XXXXXXX ",
"..XXXXo.oooooooXoooooooXoooooooXooooooo.XXXXXXX ",
"..XXXXo.oooooooXoooooooXoooooooXooooooo.XXXXXXX ",
"..XXXXo.oooooooXoooooooXoooooooXooooooo.XXXXXXX ",
"..XXXXo.oooooooXoooooooXoooooooXooooooo.XXXXXXX ",
"..XXXXo.oooooooXoooooooXoooooooXooooooo.XXXXXXX ",
"..XXXXo.oooooooXoooooooXoooooooXooooooo.XXXXXXX ",
"   .....XXXXXXXXXXXXXXXXXXXXXXXXXXXXXXX......   ",
"  XXXXX.oooooooXoooooooXoooooooXooooooo.oXXXXXX ",
"  XXXXX.oooooooXoooooooXoooooooXooooooo.oXXXXXX ",
"..XXXXX.oooooooXoooooooXoooooooXooooooo.oXXXXXX ",
"  XXXXX.oooooooXoooooooXoooooooXooooooo.oXXXXXX ",
"..XXXXX.oooooooXoooooooXoooooooXooooooo.oXXXXXX ",
"..XXXXX.oooooooXoooooooXoooooooXooooooo oXXXXXX ",
"..XXXXX.oooooooXoooooooXoooooooXooooooo oXXXXXX ",
"   ......XXXXXXXXXXXXXXXXXXXXXXXXXXXXX. .....   ",
"..XXXXo.oooooooXoooooooXoooooooXooooooo XXXXXXX ",
"..XXXXo.oooooooXoooooooXoooooooXooooooo.XXXXXXX ",
"..XXXXo.oooooooXoooooooXoooooooXooooooo.XXXXXXX ",
"  ....X XXXXXXX.XXXXXXX.XXXXXXX.XXXXXXX ....... ",
"  ....X XXXXXXX.XXXXXXX.XXXXXXX.XXXXXXX ....... ",
"  ....X XXXXXXX.XXXXXXX.XXXXXXX.XXXXXXX ....... ",
"         .............................          "
};
