/* XPM */
static char *_ea6af1ceb8446dec7343ec7df3ac56aY0JiuNgF8UTDPfus[] = {
/* columns rows colors chars-per-pixel */
"32 32 160 2 ",
"   c #00000E",
".  c #261A14",
"X  c #201E1B",
"o  c #1B221F",
"O  c #1B261F",
"+  c #1D261E",
"@  c #202715",
"#  c #2D2615",
"$  c #20271E",
"%  c #27281B",
"&  c #2B2A1A",
"*  c #2C2B1A",
"=  c #282A1C",
"-  c #2A2D1D",
";  c #2C2E1C",
":  c #312112",
">  c #382916",
",  c #302D1C",
"<  c #392E18",
"1  c #283017",
"2  c #2A321D",
"3  c #2C301D",
"4  c #30341F",
"5  c #121C24",
"6  c #182522",
"7  c #1C2721",
"8  c #1D2A23",
"9  c #1D2F25",
"0  c #1C2F29",
"q  c #1D3327",
"w  c #1F3528",
"e  c #1F3A2E",
"r  c #1D3E2E",
"t  c #183F30",
"y  c #1E3F30",
"u  c #222922",
"i  c #222D21",
"p  c #253522",
"a  c #203624",
"s  c #2D3520",
"d  c #223C26",
"f  c #213A2B",
"g  c #263B2B",
"h  c #203C2D",
"j  c #2F3D2A",
"k  c #363E24",
"l  c #383B21",
"z  c #583D0F",
"x  c #432F12",
"c  c #453012",
"v  c #40341B",
"b  c #48371A",
"n  c #453C1F",
"m  c #523A12",
"M  c #2E4327",
"N  c #22402D",
"B  c #28452C",
"V  c #214C2F",
"C  c #394423",
"Z  c #384224",
"A  c #3E4325",
"S  c #3B4426",
"D  c #3C4424",
"F  c #3D5427",
"G  c #36512B",
"H  c #204030",
"J  c #234532",
"K  c #244732",
"L  c #254932",
"P  c #264C32",
"I  c #2B5637",
"U  c #2B5935",
"Y  c #2C5935",
"T  c #2D5D38",
"R  c #315233",
"E  c #2D673C",
"W  c #2F683C",
"Q  c #31633A",
"!  c #356039",
"~  c #326539",
"^  c #3A6539",
"/  c #30683C",
"(  c #346B3D",
")  c #366C3D",
"_  c #396C3C",
"`  c #3C6F3C",
"'  c #36703F",
"]  c #3E733F",
"[  c #3F743F",
"{  c #574017",
"}  c #5B4515",
"|  c #53401D",
" . c #604A17",
".. c #67511F",
"X. c #414A2A",
"o. c #424C2B",
"O. c #464D2B",
"+. c #434E2C",
"@. c #444F2C",
"#. c #445523",
"$. c #45522F",
"%. c #47522E",
"&. c #47542F",
"*. c #48542F",
"=. c #4C5B2F",
"-. c #51542D",
";. c #57582F",
":. c #4A5630",
">. c #4B5830",
",. c #4E5B32",
"<. c #4E5C32",
"1. c #515F33",
"2. c #515F34",
"3. c #6F5A22",
"4. c #6A5A2C",
"5. c #755E2A",
"6. c #4B602A",
"7. c #516B2A",
"8. c #406230",
"9. c #526034",
"0. c #546235",
"q. c #576637",
"w. c #576638",
"e. c #586738",
"r. c #5B7D35",
"t. c #786530",
"y. c #357040",
"u. c #477B41",
"i. c #4D7D41",
"p. c #487F45",
"a. c #836B2F",
"s. c #779C3A",
"d. c #4D8043",
"f. c #4F8445",
"g. c #568743",
"h. c #538644",
"j. c #568844",
"k. c #588B46",
"l. c #598D46",
"z. c #5E9146",
"x. c #619446",
"c. c #669544",
"v. c #689641",
"b. c #6C9E47",
"n. c #699C48",
"m. c #75A747",
"M. c #75A847",
"N. c #7BAD47",
"B. c #7FAF47",
"V. c #72A64C",
"C. c #78AB49",
"Z. c #7AAE4A",
"A. c #7CAE48",
"S. c #8CB744",
"D. c #8BB947",
"F. c #8DB945",
"G. c #86B648",
"H. c #91BF47",
"J. c #9BCA48",
"K. c #9FD04D",
/* pixels */
"e.e.e.e.e.e.e.e.e.e.e.e.e.9.2     2 9.e.e.e.e.e.e.e.e.e.e.e.e.e.",
"e.e.e.e.e.e.e.e.e.e.e.q.0.=.6.7.7.6.=.0.w.e.e.e.e.e.e.e.e.e.e.e.",
"e.e.e.e.e.e.e.e.e.e.e.0.C #.s.S.S.s.#.C 0.e.e.e.e.e.e.e.e.e.e.e.",
"e.e.e.e.e.e.e.e.e.q.0.$.6 r.F.K.K.F.r.6 $.0.q.e.e.e.e.e.e.e.e.e.",
"e.e.e.e.e.e.e.e.e.1.Z M ^ c.D.J.J.D.c.^ M Z 1.e.e.e.e.e.e.e.e.e.",
"e.e.e.e.e.e.e.e.e.<.@ G g.V.G.H.H.G.V.g.G @ <.e.e.e.e.e.e.e.e.e.",
"e.e.e.e.e.e.e.e.e.9.1 F v.Z.A.B.B.A.Z.v.F 1 9.e.e.e.e.e.e.e.e.e.",
"e.e.e.e.e.e.e.q.0.$.u 8.v.C.M.m.m.M.C.v.8.u $.0.w.e.e.e.e.e.e.e.",
"e.e.e.e.e.e.e.0.D p V ` j.n.m.N.N.m.n.j.` V p D 0.e.e.e.e.e.e.e.",
"e.e.e.e.e.q.0.$.X B _ p.f.z.b.m.m.b.z.f.p._ B X $.0.q.e.e.e.e.e.",
"e.e.e.e.e.2.S u 5 R i.l.k.l.z.x.x.z.l.k.l.i.R 5 u S 2.e.e.e.e.e.",
"e.e.e.e.e.,.% 8 r ! i.l.l.l.j.j.j.j.l.l.l.i.! r 8 % ,.e.e.e.e.e.",
"e.e.e.e.e.<.; a Y ( _ u.j.z.l.l.l.l.z.j.u._ ( U a ; <.e.e.e.e.e.",
"e.e.e.e.e.<.3 d ~ y.E _ d.j.h.h.h.h.j.d._ E y.~ d 3 <.e.e.e.e.e.",
"e.e.e.e.e.<.3 d ~ y./ ) ] [ ] ] ] ] [ ] ) / y.~ d 3 <.e.e.e.e.e.",
"e.e.e.e.e.<.3 a Y / ( ( / W / / / / W / ) ( / Y a 3 <.e.e.e.e.e.",
"e.e.e.e.e.<.3 8 N I / ' ) ) ) ) ) ) ) ) ' / I N 8 3 <.e.e.e.e.e.",
"e.e.e.e.e.<.3 o 0 K T ~ ~ Q Q Q Q Q Q ~ ~ T K 0 o 3 <.e.e.e.e.e.",
"e.e.e.e.e.<.- 7 e J L P L L L L L L L L P L J e 7 - <.e.e.e.e.e.",
"e.e.e.e.e.2.k + q h e e e e e e e e e e e e h q + k 2.e.e.e.e.e.",
"e.e.e.e.e.0.*.k + 9 h H H y t t t t y H H h 9 + k *.0.e.e.e.e.e.",
"e.e.e.w.q.9.,.o.4 $ w h f g j j j j g f h w $ 4 o.,.9.q.w.e.e.e.",
"e.e.e.q.,.*.*.$.o.Z i O $ , v b b v , $ O i Z o.$.*.*.,.q.e.e.e.",
"e.e.e.0.*.+.$.&.>.o.= . : x m z z m x : . = o.>.&.$.+.*.0.e.e.e.",
"e.e.e.0.*.$.$.$.:.X.* > c m }  . .} m c > & X.:.$.$.$.:.0.e.e.e.",
"e.e.e.0.:.$.$.$.*.o.l < x { ..3.3...{ x < l o.*.$.$.$.:.0.e.e.e.",
"e.e.e.0.:.$.$.$.$.$.@.A # | 5.a.a.5.| # A @.$.$.$.$.$.:.0.e.e.e.",
"e.e.e.0.:.$.$.$.$.$.*.+.s n 4.t.t.4.n s +.:.$.$.$.$.$.:.0.e.e.e.",
"e.e.e.0.*.+.$.$.$.$.$.$.o.O.-.;.;.-.O.o.$.$.$.$.$.$.+.*.0.e.e.e.",
"e.e.e.q.,.*.$.$.$.$.$.$.*.*.&.&.&.&.*.*.$.$.$.$.$.$.*.,.q.e.e.e.",
"e.e.e.w.q.2.:.$.$.$.$.$.$.$.$.$.$.$.$.$.$.$.$.$.$.*.1.q.w.e.e.e.",
"e.e.e.e.e.q.>.$.$.$.$.$.$.$.$.$.$.$.$.$.$.$.$.$.$.>.q.e.e.e.e.e."
};
