/* XPM */
static char *_e7644aaa63f43a8ed6e4c1c0784a7f6cJO5fiDuRDJjxNcv[] = {
/* columns rows colors chars-per-pixel */
"32 32 160 2 ",
"   c #00000E",
".  c #1D1C1B",
"X  c #261A14",
"o  c #1C2515",
"O  c #1B221F",
"+  c #1B261F",
"@  c #1C261E",
"#  c #2C2515",
"$  c #232E17",
"%  c #24271B",
"&  c #20271E",
"*  c #25291C",
"=  c #272C1C",
"-  c #2A2A1A",
";  c #282E1D",
":  c #312112",
">  c #382916",
",  c #302D1C",
"<  c #382D18",
"1  c #24301D",
"2  c #29301F",
"3  c #111C24",
"4  c #142422",
"5  c #1C2721",
"6  c #1D2822",
"7  c #1F2C21",
"8  c #1D2F25",
"9  c #1C2F29",
"0  c #1D3327",
"q  c #1F3428",
"w  c #1F3A2E",
"e  c #1D3E2E",
"r  c #183F30",
"t  c #1E3F30",
"y  c #202820",
"u  c #202C21",
"i  c #233422",
"p  c #203624",
"a  c #283320",
"s  c #223C26",
"d  c #213A2B",
"f  c #263B2B",
"g  c #203C2D",
"h  c #2F3D2A",
"j  c #343921",
"k  c #313B24",
"l  c #313F24",
"z  c #583D0F",
"x  c #432F12",
"c  c #453012",
"v  c #40341B",
"b  c #48371A",
"n  c #443C1F",
"m  c #523A12",
"M  c #2C4227",
"N  c #22402D",
"B  c #28452C",
"V  c #204C2F",
"C  c #324123",
"Z  c #324027",
"A  c #354124",
"S  c #394125",
"D  c #3A472A",
"F  c #3B492B",
"G  c #3C4A2B",
"H  c #3B4B2C",
"J  c #3C4B2C",
"K  c #3D4F2F",
"L  c #3D5427",
"P  c #36512B",
"I  c #3F502F",
"U  c #204030",
"Y  c #234532",
"T  c #244732",
"R  c #254932",
"E  c #264C32",
"W  c #2B5637",
"Q  c #2B5935",
"!  c #2C5935",
"~  c #2D5D38",
"^  c #315233",
"/  c #2D673C",
"(  c #2F683C",
")  c #31633A",
"_  c #356039",
"`  c #326539",
"'  c #396539",
"]  c #30683C",
"[  c #346B3D",
"{  c #366C3D",
"}  c #396C3C",
"|  c #3C6F3C",
" . c #36703F",
".. c #3E733F",
"X. c #3F743F",
"o. c #574017",
"O. c #5B4515",
"+. c #53401D",
"@. c #604A17",
"#. c #67511F",
"$. c #404A2B",
"%. c #425523",
"&. c #40512F",
"*. c #41522F",
"=. c #4C522D",
"-. c #45582F",
";. c #53562F",
":. c #425330",
">. c #435430",
",. c #455732",
"<. c #455832",
"1. c #475A34",
"2. c #485B33",
"3. c #485B34",
"4. c #485C34",
"5. c #4A5E35",
"6. c #6F5A22",
"7. c #69592C",
"8. c #755E2A",
"9. c #49602A",
"0. c #516B2A",
"q. c #406230",
"w. c #4D6237",
"e. c #4E6338",
"r. c #5B7D35",
"t. c #776530",
"y. c #357040",
"u. c #477B41",
"i. c #4D7D41",
"p. c #487F45",
"a. c #836B2F",
"s. c #779C3A",
"d. c #4D8043",
"f. c #4F8445",
"g. c #568743",
"h. c #538644",
"j. c #568844",
"k. c #588B46",
"l. c #598D46",
"z. c #5E9146",
"x. c #619446",
"c. c #669544",
"v. c #689641",
"b. c #6C9E47",
"n. c #699C48",
"m. c #75A747",
"M. c #75A847",
"N. c #7BAD47",
"B. c #7FAF47",
"V. c #72A64C",
"C. c #78AB49",
"Z. c #7AAE4A",
"A. c #7CAE48",
"S. c #8CB744",
"D. c #8BB947",
"F. c #8DB945",
"G. c #86B648",
"H. c #91BF47",
"J. c #9BCA48",
"K. c #9FD04D",
/* pixels */
"e.e.e.e.e.e.e.e.e.e.e.e.e.5.1     1 5.e.e.e.e.e.e.e.e.e.e.e.e.e.",
"e.e.e.e.e.e.e.e.e.e.e.w.5.-.9.0.0.9.-.5.e.e.e.e.e.e.e.e.e.e.e.e.",
"e.e.e.e.e.e.e.e.e.e.e.5.C %.s.S.S.s.%.C 5.e.e.e.e.e.e.e.e.e.e.e.",
"e.e.e.e.e.e.e.e.e.w.5.K 4 r.F.K.K.F.r.4 K 5.w.e.e.e.e.e.e.e.e.e.",
"e.e.e.e.e.e.e.e.e.2.l M ' c.D.J.J.D.c.' M l 2.e.e.e.e.e.e.e.e.e.",
"e.e.e.e.e.e.e.e.e.<.o P g.V.G.H.H.G.V.g.P o <.e.e.e.e.e.e.e.e.e.",
"e.e.e.e.e.e.e.e.e.5.$ L v.Z.A.B.B.A.Z.v.L $ 5.e.e.e.e.e.e.e.e.e.",
"e.e.e.e.e.e.e.w.5.K 6 q.v.C.M.m.m.M.C.v.q.5 K 5.e.e.e.e.e.e.e.e.",
"e.e.e.e.e.e.e.5.A i V | j.n.m.N.N.m.n.j.| V i A 5.e.e.e.e.e.e.e.",
"e.e.e.e.e.w.5.K . B } p.f.z.b.m.m.b.z.f.p.} B . K 5.w.e.e.e.e.e.",
"e.e.e.e.e.3.A y 3 ^ i.l.k.l.z.x.x.z.l.k.l.i.^ 3 y A 3.e.e.e.e.e.",
"e.e.e.e.e.,.% 6 e _ i.l.l.l.j.j.j.j.l.l.l.i._ e 6 % ,.e.e.e.e.e.",
"e.e.e.e.e.<.= p ! [ } u.j.z.l.l.l.l.z.j.u.} [ Q p = <.e.e.e.e.e.",
"e.e.e.e.e.<.; s ` y./ } d.j.h.h.h.h.j.d.} / y.` s ; <.e.e.e.e.e.",
"e.e.e.e.e.<.; s ` y.] { ..X.........X...{ ] y.` s ; <.e.e.e.e.e.",
"e.e.e.e.e.<.; p ! ] [ [ ] ( ] ] ] ] ( ] { [ ] ! p ; <.e.e.e.e.e.",
"e.e.e.e.e.<.; 6 N W ]  .{ { { { { { { {  .] W N 6 ; <.e.e.e.e.e.",
"e.e.e.e.e.<.2 O 9 T ~ ` ` ) ) ) ) ) ) ` ` ~ T 9 O 2 <.e.e.e.e.e.",
"e.e.e.e.e.<.= 5 w Y R E R R R R R R R R E R Y w 5 = <.e.e.e.e.e.",
"e.e.e.e.e.1.k @ 0 g w w w w w w w w w w w w g 0 @ k 1.e.e.e.e.e.",
"e.e.e.e.e.w.&.l @ 8 g U U t r r r r t U U g 8 @ l &.w.e.e.e.e.e.",
"e.e.e.e.w.5.,.F 2 @ q g d f h h h h f d g q @ 2 F ,.5.w.e.e.e.e.",
"e.e.e.w.<.&.&.K G Z u + & , v b b v , & + 7 Z G K &.&.<.w.e.e.e.",
"e.e.e.5.&.J K I >.F * X : x m z z m x : X * F >.I K J &.5.e.e.e.",
"e.e.e.5.&.K K I &.D - > c m O.@.@.O.m c > - D :.I K K :.5.e.e.e.",
"e.e.e.5.>.K K I I G j < x o.#.6.6.#.o.x < j G I I K K >.5.e.e.e.",
"e.e.e.5.>.K K K I K K S # +.8.a.a.8.+.# S K K &.K K K >.5.e.e.e.",
"e.e.e.5.:.K K K K I &.H a n 7.t.t.7.n a J :.&.K K K K :.5.e.e.e.",
"e.e.e.5.&.J K K K K &.K F $.=.;.;.=.$.F K I K K K K J &.5.e.e.e.",
"e.e.e.w.<.&.I K K K $.I &.&.I I I I I &.I K K K K I &.<.w.e.e.e.",
"e.e.e.e.w.5.:.K K K K K &.&.K K K K I I K K K K K &.5.w.e.e.e.e.",
"e.e.e.e.e.w.>.K K K K K $.$.K K K K K K K K K K K &.w.w.e.e.e.e."
};
