/* XPM */
static char *xpm_[] = {
/* columns rows colors chars-per-pixel */
"64 64 187 2 ",
"   c #00000A",
".  c #0C100D",
"X  c #1E1E19",
"o  c #251C16",
"O  c #2B1F14",
"+  c #221E18",
"@  c #1F2817",
"#  c #1E241D",
"$  c #262217",
"%  c #292417",
"&  c #212E16",
"*  c #23251C",
"=  c #28251A",
"-  c #242A1D",
";  c #2B2D1C",
":  c #312314",
">  c #3B2710",
",  c #332A17",
"<  c #3B2A14",
"1  c #322C1A",
"2  c #3A2E18",
"3  c #243015",
"4  c #253119",
"5  c #2C341E",
"6  c #2F381C",
"7  c #32341D",
"8  c #323D1E",
"9  c #39381E",
"0  c #141C21",
"q  c #181820",
"w  c #1A2623",
"e  c #1D2C23",
"r  c #162D28",
"t  c #1E3327",
"y  c #1E352A",
"u  c #1E3B2E",
"i  c #163E30",
"p  c #1D3E30",
"a  c #232C21",
"s  c #282F21",
"d  c #233222",
"f  c #2C3421",
"g  c #203C27",
"h  c #2C3A25",
"j  c #233628",
"k  c #213D2D",
"l  c #293C2B",
"z  c #323520",
"x  c #353D23",
"c  c #3A3D22",
"v  c #213F30",
"b  c #4B330F",
"n  c #51390F",
"m  c #422E13",
"M  c #443114",
"N  c #4A3413",
"B  c #4E3816",
"V  c #44371D",
"C  c #43381E",
"Z  c #4C3919",
"A  c #533B12",
"S  c #593F10",
"D  c #2E4223",
"F  c #24422C",
"G  c #2F472B",
"H  c #254A2D",
"J  c #2B4B2D",
"K  c #354224",
"L  c #3C4526",
"P  c #3D4A24",
"I  c #374529",
"U  c #3D4628",
"Y  c #334D2A",
"T  c #3F492A",
"R  c #3F5224",
"E  c #33542E",
"W  c #224330",
"Q  c #264C32",
"!  c #294B31",
"~  c #2A5334",
"^  c #2D5C36",
"/  c #2F5E38",
"(  c #375A33",
")  c #365D36",
"_  c #2F643B",
"`  c #2F683C",
"'  c #32653B",
"]  c #3B6439",
"[  c #346B3D",
"{  c #396E3D",
"}  c #36703F",
"|  c #3D723F",
" . c #5C4414",
".. c #5D471C",
"X. c #624C19",
"o. c #66501D",
"O. c #6A551E",
"+. c #414727",
"@. c #4C4927",
"#. c #434D2B",
"$. c #544421",
"%. c #5D4921",
"&. c #435A27",
"*. c #46522E",
"=. c #48542E",
"-. c #4C5B2E",
";. c #51552D",
":. c #5C552C",
">. c #5F5A2E",
",. c #4A5630",
"<. c #4D5A32",
"1. c #515E34",
"2. c #675120",
"3. c #6E5726",
"4. c #6F5924",
"5. c #665528",
"6. c #6D5728",
"7. c #665D2F",
"8. c #735E25",
"9. c #4E6328",
"0. c #536C2D",
"q. c #59742C",
"w. c #5C782F",
"e. c #446633",
"r. c #4B6A31",
"t. c #556336",
"y. c #576638",
"u. c #586738",
"i. c #4F7235",
"p. c #46733C",
"a. c #4A753C",
"s. c #4C7B3F",
"d. c #72612F",
"f. c #7B652D",
"g. c #736330",
"h. c #7F6931",
"j. c #617F31",
"k. c #357040",
"l. c #3F7642",
"z. c #437640",
"x. c #497740",
"c. c #457941",
"v. c #4B7E43",
"b. c #816A2F",
"n. c #846D30",
"m. c #55823E",
"M. c #5C873C",
"N. c #5E8A3F",
"B. c #668533",
"V. c #668836",
"C. c #628C3D",
"Z. c #759739",
"A. c #749839",
"S. c #7DA53E",
"D. c #4E8244",
"F. c #528544",
"G. c #568946",
"H. c #5A8D46",
"J. c #5D9046",
"K. c #629446",
"L. c #669846",
"P. c #6B9D46",
"I. c #679A4A",
"U. c #699C48",
"Y. c #709D43",
"T. c #6FA247",
"R. c #6FA34C",
"E. c #72A446",
"W. c #76A847",
"Q. c #7AAC47",
"!. c #72A448",
"~. c #76A949",
"^. c #7AAD4A",
"/. c #7DB04A",
"(. c #80A73E",
"). c #83AB40",
"_. c #85B245",
"`. c #8CBB47",
"'. c #8DBB47",
"]. c #81B148",
"[. c #87B648",
"{. c #91BE46",
"}. c #94C347",
"|. c #9AC947",
" X c #95C349",
".X c #9CCC4B",
"XX c #A1D34E",
/* pixels */
"u.u.u.u.u.u.u.u.u.u.u.u.u.u.u.u.u.u.u.u.u.u.u.u.u.u.u.-.K $ .     . $ K -.t.u.u.u.u.u.u.u.u.u.u.u.u.u.u.u.u.u.u.u.u.u.u.u.u.u.u.",
"u.u.u.u.u.u.u.u.u.u.u.u.u.u.u.u.u.u.u.u.u.u.u.u.u.t.t.,.P 4 & & & & 4 L -.t.t.u.u.u.u.u.u.u.u.u.u.u.u.u.u.u.u.u.u.u.u.u.u.u.u.u.",
"u.u.u.u.u.u.u.u.u.u.u.u.u.u.u.u.u.u.u.u.u.u.u.u.y.t.t.-.#.&.&.&.&.R R &.-.t.t.u.u.u.u.u.u.u.u.u.u.u.u.u.u.u.u.u.u.u.u.u.u.u.u.u.",
"u.u.u.u.u.u.u.u.u.u.u.u.u.u.u.u.u.u.u.u.u.u.u.t.t.<.&.-.0.w.w.B.B.j.w.0.-.=.-.t.t.u.u.u.u.u.u.u.u.u.u.u.u.u.u.u.u.u.u.u.u.u.u.u.",
"u.u.u.u.u.u.u.u.u.u.u.u.u.u.u.u.u.u.u.u.u.u.t.t.*.P P 9.B.Z.S.(.).(.Z.B.9.P P &.t.u.u.u.u.u.u.u.u.u.u.u.u.u.u.u.u.u.u.u.u.u.u.u.",
"u.u.u.u.u.u.u.u.u.u.u.u.u.u.u.u.u.u.u.u.u.t.t.-.L 8 P q.A.(.{. X X{.).Z.q.P 8 P =.t.t.u.u.u.u.u.u.u.u.u.u.u.u.u.u.u.u.u.u.u.u.u.",
"u.u.u.u.u.u.u.u.u.u.u.u.u.u.u.u.u.u.u.t.u.t.<.*.f h &.B.(.{.|.XXXX|.{.(.V.&.f f #.<.t.t.u.u.u.u.u.u.u.u.u.u.u.u.u.u.u.u.u.u.u.u.",
"u.u.u.u.u.u.u.u.u.u.u.u.u.u.u.u.u.u.t.t.t.,.=.I d J i.P.[.|..XXXXX.X}._.P.i.Y e I =.<.t.t.t.u.u.u.u.u.u.u.u.u.u.u.u.u.u.u.u.u.u.",
"u.u.u.u.u.u.u.u.u.u.u.u.u.u.u.u.u.y.t.<.=.P K J ! ] m.Y.].}.|..X.X|.{._.Y.m.e.! Y I I =.-.t.t.u.u.u.u.u.u.u.u.u.u.u.u.u.u.u.u.u.",
"u.u.u.u.u.u.u.u.u.u.u.u.u.u.u.u.u.y.t.=.L 5 h E ] s.K.!.].}.}.|.|.|.{.].E.H.x.] Y l 5 L =.t.t.u.u.u.u.u.u.u.u.u.u.u.u.u.u.u.u.u.",
"u.u.u.u.u.u.u.u.u.u.u.u.u.u.u.u.u.t.t.*.8 & D ( p.H.I.~.].'.}.}. X{.'.].~.I.H.p.( D & h =.t.t.u.u.u.u.u.u.u.u.u.u.u.u.u.u.u.u.u.",
"u.u.u.u.u.u.u.u.u.u.u.u.u.u.u.u.y.t.t.=.6 @ D e.m.K.R.^.].[.'.'.'.'.[.].^.E.K.m.e.D @ 8 =.t.u.u.u.u.u.u.u.u.u.u.u.u.u.u.u.u.u.u.",
"u.u.u.u.u.u.u.u.u.u.u.u.u.u.u.u.y.y.t.=.8 3 D r.M.P.W.^././._.[.].].].^.^.~.P.N.r.8 4 9 -.t.u.u.u.u.u.u.u.u.u.u.u.u.u.u.u.u.u.u.",
"u.u.u.u.u.u.u.u.u.u.u.u.u.u.u.u.y.y.t.=.K 4 K r.C.E.Q.^.Q.Q.Q.Q.Q.].Q.^.^.Q.E.C.0.K 4 8 =.t.t.u.u.u.u.u.u.u.u.u.u.u.u.u.u.u.u.u.",
"u.u.u.u.u.u.u.u.u.u.u.u.u.u.u.y.y.t.<.#.8 5 Y i.C.E.W.^.~.W.W.W.W.W.W.W.^.~.Y.C.i.Y 4 8 #.<.t.t.u.u.u.u.u.u.u.u.u.u.u.u.u.u.u.u.",
"u.u.u.u.u.u.u.u.u.u.u.u.u.u.y.t.t.,.*.I f g ( i.N.P.E.~.W.W.W.W.W.W.W.W.~.W.P.N.a.E F d I *.<.t.u.u.u.u.u.u.u.u.u.u.u.u.u.u.u.u.",
"u.u.u.u.u.u.u.u.u.u.u.u.u.u.u.1.,.L x h y H _ p.F.K.U.T.W.W.Q.Q.Q.W.W.W.T.U.K.F.p.( H u g x L =.t.u.y.u.u.u.u.u.u.u.u.u.u.u.u.u.",
"u.u.u.u.u.u.u.u.u.u.u.u.u.y.t.,.+.f d g Q _ } p.D.H.K.U.T.W.Q.Q.Q.Q.W.T.U.K.G.D.p.[ _ H g 5 5 L -.t.t.u.y.y.u.u.u.u.u.u.u.u.u.u.",
"u.u.u.u.u.u.u.u.u.u.u.u.u.1.1.*.z * d H ^ } | D.D.F.J.L.U.E.W.Q.Q.W.E.U.L.H.G.D.D.l.[ ^ H j w z #.<.t.u.y.y.u.u.u.u.u.u.u.u.u.u.",
"u.u.u.u.u.u.u.u.u.u.y.1.1.<.#.c * w k ( { l.D.D.D.F.H.J.L.U.T.E.E.T.U.L.K.H.F.D.D.D.p.{ ( l X a K *.,.t.y.y.y.u.u.u.u.u.u.u.u.u.",
"u.u.u.u.u.u.u.u.u.t.t.1.=.L x a q w l ) p.D.G.G.G.G.H.J.K.K.L.I.L.L.L.J.J.H.G.G.G.G.D.| ) l w q a x L =.1.t.y.y.u.u.u.u.u.u.u.u.",
"u.u.u.u.u.u.u.u.u.y.t.-.L f a w 0 y ! ] p.F.H.J.H.H.H.H.J.J.J.J.J.J.J.J.H.G.H.H.J.H.F.z.] J r 0 0 a f L -.t.y.u.u.u.u.u.u.u.u.u.",
"u.u.u.u.u.u.u.u.u.y.t.=.x = # e r p ~ ] a.F.G.J.J.G.H.H.G.G.G.H.G.H.G.H.H.H.H.H.H.H.F.c.] ~ k r w a * x *.1.u.u.u.u.u.u.u.u.u.u.",
"u.u.u.u.u.u.u.u.u.t.1.*.z X # y u Q / { z.D.G.G.G.H.H.H.H.G.G.G.G.G.G.G.H.H.H.H.G.G.D.c.{ _ Q u y # X z *.1.y.u.u.u.u.u.u.u.u.u.",
"u.u.u.u.u.u.u.u.u.y.t.=.8 * - g Q ^ ' [ | z.v.F.G.H.J.J.J.J.G.H.H.H.H.H.J.K.G.G.D.v.p.| [ ' ^ H F e * 8 =.1.y.u.u.u.u.u.u.u.u.u.",
"u.u.u.u.u.u.u.u.u.t.t.=.x - d F ~ ' [ [ [ [ | c.D.G.H.J.G.J.H.H.H.H.G.H.H.H.G.F.c.l.} [ [ [ ' ~ F - ; x =.t.y.u.u.u.u.u.u.u.u.u.",
"u.u.u.u.u.u.u.u.u.t.1.=.8 ; - H ( [ [ [ ` ` [ p.v.F.G.H.G.G.G.G.G.G.H.H.G.G.F.v.p.[ ' ` [ [ [ ^ H 4 - c *.t.>.u.u.u.u.u.u.u.u.u.",
"u.u.u.u.u.u.u.u.u.t.t.=.K - d H / [ k.k.` ` [ | c.D.D.F.D.D.D.D.D.D.D.D.F.D.D.x.| [ ` ` k.} [ / H d - x =.1.u.u.u.u.u.u.u.u.u.u.",
"u.u.u.u.u.u.u.u.u.y.1.=.9 - d H / [ } } [ [ [ | | z.c.c.z.c.p.c.a.c.z.z.c.c.z.| } [ [ [ } } [ _ H d - K =.1.u.u.u.u.u.u.u.u.u.u.",
"u.u.u.u.u.u.u.u.y.y.t.=.K - d H ^ ' [ } } [ [ [ [ { { { [ | } | k.[ | { { | | [ { [ [ [ } } ' ~ H 4 - x -.1.u.u.u.u.u.u.u.u.u.u.",
"u.u.u.u.u.u.u.u.y.y.t.=.c - 4 H ~ ' ' } [ [ [ [ [ [ [ ` [ [ ' ' [ [ [ ` [ [ [ [ [ [ [ [ [ [ _ ~ F 4 - K =.1.y.u.u.u.u.u.u.u.u.u.",
"u.u.u.u.u.u.u.u.y.y.1.=.K - - g H / ' ' ' [ [ } [ [ ` ` ` ` [ ` ` ` _ ` ` ` ` [ [ [ [ [ ' ' ^ H F - - x =.1.y.u.u.u.u.u.u.u.u.u.",
"u.u.u.u.u.u.u.u.y.y.1.=.c - w j v Q ^ / ' [ ' k.[ k.[ [ k.k.k.k.[ [ [ [ [ } [ } k.k.[ ' / ~ Q v j a * x =.1.y.y.y.y.u.u.u.u.u.u.",
"u.u.u.u.u.u.u.u.u.y.t.=.c - * e j v Q ^ / ' k.k.[ [ [ k.` ' ' k.[ [ [ [ [ [ [ [ k.k.' ' ~ Q v j e a a c =.t.y.y.u.y.u.u.u.u.u.u.",
"u.u.u.u.u.u.u.u.u.y.t.,.x - + w r j W ~ / ' k.k.[ ' ' ' ' ' k.' ' ' ' ' ' ' ` [ [ ' ' / ~ W k w w w = x =.1.y.u.u.u.u.u.u.u.u.u.",
"u.u.u.u.u.u.u.u.u.t.<.,.x - w w r y v W ~ / / ' / / / / / / / / _ _ _ ) _ / / _ ' / / ~ Q W y r w X a x =.t.y.u.u.u.u.u.u.u.u.u.",
"u.u.u.u.u.u.u.u.u.y.1.=.x * w e j v v W Q ~ ~ ~ ~ ~ ~ ~ ~ ~ ~ ~ ~ ~ ~ ~ ~ ~ ~ Q ~ ~ Q Q Q W k y a w * x *.t.y.u.u.u.u.u.u.u.u.u.",
"u.u.u.u.u.u.u.u.u.y.1.=.x = * e y v v W W v W W W W W W W v W W W W W W F F F Q W v W W W W k t e * * x =.1.t.u.u.u.u.u.u.u.u.u.",
"u.u.u.u.u.u.u.u.u.y.t.-.L ; # e t k v v k u p v v p k v u u p p u v p p p W p u k W u k p k y t w * ; L ,.t.t.u.u.u.u.u.u.u.u.u.",
"u.u.u.u.u.u.u.u.u.u.1.<.#.x s e e r j v u u j p j u u u u u u p y u y u u u u u u u k u u y t t a s x #.<.t.y.y.u.u.u.u.u.u.u.u.",
"u.u.u.u.u.u.u.u.y.y.y.<.,.T x f a w e j k u W v v v p p p i i i i i i i p v p v v v v k y t w # f I T ,.t.y.y.y.u.u.u.u.u.u.u.u.",
"u.u.u.u.u.u.u.u.y.y.y.t.<.*.T x s X w t y k v W v v v p p u p p i p p v v v v v v v k y a w # ; x +.*.<.1.t.y.y.u.u.u.u.u.u.u.u.",
"u.u.u.u.u.u.u.y.y.y.t.t.1.,.*.L z - * w t u u W k k k k k v l l l v l l v k k v v k u t w # = f L #.,.1.t.t.t.y.y.y.u.u.u.u.u.u.",
"u.u.u.u.u.y.y.y.t.t.1.<.<.,.*.#.c z s a d j y y j j j l z x c x c x x l h j j j y y y d a f z L +.*.<.<.<.<.t.t.y.y.u.u.u.u.u.u.",
"u.u.u.u.u.u.y.t.t.<.<.,.,.,.*.#.#.L L f d e e e e a s z 7 c V V C C C 7 7 s a e e e e d x x L #.#.*.,.,.,.<.<.t.t.y.u.u.u.u.u.u.",
"u.u.u.u.u.y.y.1.<.,.,.*.*.,.*.*.*.#.T L f # # # + % , 2 M m B B Z Z C M 2 : = + # # # f I #.#.*.*.*.*.*.*.*.<.<.t.y.y.u.u.u.u.u.",
"u.u.u.u.u.y.y.1.<.*.*.#.*.*.,.*.,.,.#.L 5 * + o o : > m B B A S A A A b m > : o o o * 5 L #.,.,.,.*.*.*.*.*.=.-.1.y.y.u.u.u.u.u.",
"u.u.u.u.u.y.y.1.<.*.#.#.*.*.*.*.,.,.*.L 5 o O : : > m b n S S  .S S A n N m > : O O o 5 L *.,.,.,.*.*.*.#.*.=.;.1.t.y.u.u.u.u.u.",
"u.u.u.u.u.y.y.1.<.=.#.#.,.*.,.,.,.*.*.c f = O < 2 m N A A  . .X.X. . .S n N m m < : = s I #.*.,.*.,.*.*.#.*.=.<.t.t.y.y.y.u.u.u.",
"u.u.u.u.u.y.y.1.<.=.,.#.#.*.*.*.,.*.*.U z 1 < 2 m N A S  .X.X.X.X.X... .S A N m 2 , , z U #.,.,.*.*.*.*.#.*.=.<.t.t.y.y.y.y.u.u.",
"u.u.u.u.u.u.u.1.<.=.#.*.*.*.#.,.,.*.*.U x 1 2 m m N B  .X.X.2.2.4.O.X.X. .A N m < 2 1 c +.*.*.,.*.*.*.*.*.*.=.<.1.t.t.y.u.u.u.u.",
"u.u.u.u.u.u.u.1.<.,.*.#.#.*.*.*.*.,.#.#.L c z 2 < N B ..2.8.8.8.8.8.3.2.%.B m < 2 z c U #.#.*.,.,.*.*.#.#.*.=.<.t.t.x.y.u.u.u.u.",
"u.u.u.u.u.y.y.1.<.*.*.*.*.*.*.*.*.*.*.*.#.+.c c , > Z %.6.8.h.b.b.b.f.4.%.Z < , c +.+.#.#.*.*.,.*.*.*.*.#.*.=.<.1.u.y.u.u.u.u.u.",
"u.u.u.u.u.y.y.1.<.,.#.*.*.*.*.*.*.*.*.*.*.*.#.c ; , M %.6.n.b.n.b.b.f.3.%.C , ; c +.#.*.*.*.*.*.*.*.*.*.#.*.*.<.1.u.y.u.u.u.u.u.",
"u.u.u.u.u.y.y.1.<.*.*.#.*.*.*.*.*.,.*.,.,.*.#.U f , c $.5.g.h.h.h.h.8.5.$.2 7 f L *.,.,.,.*.*.*.*.*.*.*.*.*.*.<.1.y.y.u.u.u.u.u.",
"u.u.u.u.u.y.y.1.<.,.*.*.*.*.*.*.*.*.*.*.,.,.*.#.x x c @.:.6.d.d.g.8.7.:.@.c x x T *.,.,.*.,.*.*.*.*.*.*.#.*.,.<.1.y.y.u.u.u.u.u.",
"u.u.u.u.u.y.t.t.,.*.*.#.*.*.*.*.*.*.*.*.,.*.*.#.L +.+.@.;.:.>.>.>.>.:.;.@.+.I +.#.*.*.*.*.,.*.*.*.*.*.#.#.#.,.,.1.y.y.u.u.u.u.u.",
"u.u.u.u.u.y.y.1.<.,.#.*.*.*.*.*.*.*.*.*.*.*.*.*.#.*.#.*.*.<.;.;.;.;.;.=.*.#.#.#.*.*.*.,.*.*.*.*.*.*.*.*.*.*.,.;.1.u.y.u.u.u.u.u.",
"u.u.u.u.u.y.y.1.<.,.,.#.*.*.*.*.*.*.*.*.*.*.*.*.,.*.#.,.,.*.,.,.,.,.=.=.,.*.,.*.*.*.,.*.*.*.*.*.*.*.*.*.*.,.,.1.1.u.y.u.u.u.u.u.",
"u.u.u.u.u.u.y.t.1.1.<.,.,.*.*.*.*.*.*.*.*.*.,.*.,.,.=.,.,.,.,.*.,.*.=.=.*.*.,.,.,.*.*.*.*.*.*.*.*.*.*.,.,.,.1.1.u.u.u.u.u.u.u.u.",
"u.u.u.u.u.u.y.y.t.t.1.<.,.*.*.#.*.*.*.*.*.*.*.,.*.*.,.*.*.*.*.*.*.*.*.*.*.,.*.*.*.*.*.*.*.*.*.*.*.*.*.,.1.1.1.u.1.y.u.u.u.u.u.u.",
"u.u.u.u.u.u.u.u.u.u.t.1.<.,.*.*.*.*.*.*.*.*.*.*.*.*.*.*.*.*.*.*.*.*.*.*.*.*.,.*.*.*.*.*.*.*.*.*.*.*.,.,.1.1.y.u.u.u.u.u.u.u.u.u.",
"u.u.u.u.u.u.u.u.u.y.y.1.<.,.*.*.*.*.*.*.*.*.*.*.*.*.*.*.*.*.*.*.*.*.*.*.*.*.*.*.*.*.*.*.*.*.*.*.*.*.,.;.u.u.y.u.u.u.u.u.u.u.u.u.",
"u.u.u.u.u.u.u.u.u.u.t.t.<.,.*.#.*.*.*.*.*.*.*.*.*.*.*.*.*.*.,.*.*.*.*.*.*.*.*.*.*.*.*.*.*.*.*.*.#.*.,.<.1.y.u.u.u.u.u.u.u.u.u.u."
};
